<mxfile host="app.diagrams.net" agent="Mozilla/5.0 (Macintosh; Intel Mac OS X 10_15_7) AppleWebKit/537.36 (KHTML, like Gecko) Chrome/131.0.0.0 Safari/537.36" version="26.0.2">
  <diagram name="Page-1" id="OpVeUBVqdsq2_pwUCiuo">
    <mxGraphModel dx="2377" dy="2326" grid="1" gridSize="10" guides="1" tooltips="1" connect="1" arrows="1" fold="1" page="1" pageScale="1" pageWidth="1400" pageHeight="1700" math="0" shadow="0">
      <root>
        <mxCell id="0" />
        <mxCell id="1" parent="0" />
        <mxCell id="wuQlVSBRoirgcwjtB85D-1" value="&amp;lt;Abstract&amp;gt;&lt;div&gt;Account&lt;/div&gt;" style="swimlane;fontStyle=1;align=center;verticalAlign=top;childLayout=stackLayout;horizontal=1;startSize=40;horizontalStack=0;resizeParent=1;resizeParentMax=0;resizeLast=0;collapsible=1;marginBottom=0;whiteSpace=wrap;html=1;" parent="1" vertex="1">
          <mxGeometry x="360" y="100" width="160" height="160" as="geometry" />
        </mxCell>
        <mxCell id="wuQlVSBRoirgcwjtB85D-2" value="+ name: string&lt;div&gt;+ email: string&lt;/div&gt;&lt;div&gt;+ password: string&lt;/div&gt;&lt;div&gt;+ status: AccountStatus&lt;/div&gt;" style="text;strokeColor=none;fillColor=none;align=left;verticalAlign=top;spacingLeft=4;spacingRight=4;overflow=hidden;rotatable=0;points=[[0,0.5],[1,0.5]];portConstraint=eastwest;whiteSpace=wrap;html=1;" parent="wuQlVSBRoirgcwjtB85D-1" vertex="1">
          <mxGeometry y="40" width="160" height="70" as="geometry" />
        </mxCell>
        <mxCell id="wuQlVSBRoirgcwjtB85D-3" value="" style="line;strokeWidth=1;fillColor=none;align=left;verticalAlign=middle;spacingTop=-1;spacingLeft=3;spacingRight=3;rotatable=0;labelPosition=right;points=[];portConstraint=eastwest;strokeColor=inherit;" parent="wuQlVSBRoirgcwjtB85D-1" vertex="1">
          <mxGeometry y="110" width="160" height="8" as="geometry" />
        </mxCell>
        <mxCell id="wuQlVSBRoirgcwjtB85D-4" value="+ createAccount(): void&lt;div&gt;+ updateAccount(): void&lt;/div&gt;" style="text;strokeColor=none;fillColor=none;align=left;verticalAlign=top;spacingLeft=4;spacingRight=4;overflow=hidden;rotatable=0;points=[[0,0.5],[1,0.5]];portConstraint=eastwest;whiteSpace=wrap;html=1;" parent="wuQlVSBRoirgcwjtB85D-1" vertex="1">
          <mxGeometry y="118" width="160" height="42" as="geometry" />
        </mxCell>
        <mxCell id="wuQlVSBRoirgcwjtB85D-9" value="User" style="swimlane;fontStyle=1;align=center;verticalAlign=top;childLayout=stackLayout;horizontal=1;startSize=26;horizontalStack=0;resizeParent=1;resizeParentMax=0;resizeLast=0;collapsible=1;marginBottom=0;whiteSpace=wrap;html=1;" parent="1" vertex="1">
          <mxGeometry x="30" y="220" width="210" height="130" as="geometry" />
        </mxCell>
        <mxCell id="wuQlVSBRoirgcwjtB85D-10" value="+ availableFunds: double&lt;div&gt;+ teams: List&amp;lt;VirtualTeam&amp;gt;&lt;/div&gt;&lt;div&gt;+ contestsParticipated: List&amp;lt;Contest&amp;gt;&lt;/div&gt;" style="text;strokeColor=none;fillColor=none;align=left;verticalAlign=top;spacingLeft=4;spacingRight=4;overflow=hidden;rotatable=0;points=[[0,0.5],[1,0.5]];portConstraint=eastwest;whiteSpace=wrap;html=1;" parent="wuQlVSBRoirgcwjtB85D-9" vertex="1">
          <mxGeometry y="26" width="210" height="54" as="geometry" />
        </mxCell>
        <mxCell id="wuQlVSBRoirgcwjtB85D-11" value="" style="line;strokeWidth=1;fillColor=none;align=left;verticalAlign=middle;spacingTop=-1;spacingLeft=3;spacingRight=3;rotatable=0;labelPosition=right;points=[];portConstraint=eastwest;strokeColor=inherit;" parent="wuQlVSBRoirgcwjtB85D-9" vertex="1">
          <mxGeometry y="80" width="210" height="8" as="geometry" />
        </mxCell>
        <mxCell id="wuQlVSBRoirgcwjtB85D-12" value="+ login(): void&lt;div&gt;+ logout(): void&lt;/div&gt;" style="text;strokeColor=none;fillColor=none;align=left;verticalAlign=top;spacingLeft=4;spacingRight=4;overflow=hidden;rotatable=0;points=[[0,0.5],[1,0.5]];portConstraint=eastwest;whiteSpace=wrap;html=1;" parent="wuQlVSBRoirgcwjtB85D-9" vertex="1">
          <mxGeometry y="88" width="210" height="42" as="geometry" />
        </mxCell>
        <mxCell id="wuQlVSBRoirgcwjtB85D-13" value="Admin" style="swimlane;fontStyle=1;align=center;verticalAlign=top;childLayout=stackLayout;horizontal=1;startSize=26;horizontalStack=0;resizeParent=1;resizeParentMax=0;resizeLast=0;collapsible=1;marginBottom=0;whiteSpace=wrap;html=1;" parent="1" vertex="1">
          <mxGeometry x="30" y="40" width="190" height="100" as="geometry" />
        </mxCell>
        <mxCell id="wuQlVSBRoirgcwjtB85D-14" value="+" style="text;strokeColor=none;fillColor=none;align=left;verticalAlign=top;spacingLeft=4;spacingRight=4;overflow=hidden;rotatable=0;points=[[0,0.5],[1,0.5]];portConstraint=eastwest;whiteSpace=wrap;html=1;" parent="wuQlVSBRoirgcwjtB85D-13" vertex="1">
          <mxGeometry y="26" width="190" height="26" as="geometry" />
        </mxCell>
        <mxCell id="wuQlVSBRoirgcwjtB85D-19" style="edgeStyle=orthogonalEdgeStyle;rounded=0;orthogonalLoop=1;jettySize=auto;html=1;endSize=10;endArrow=block;endFill=0;" parent="wuQlVSBRoirgcwjtB85D-13" edge="1">
          <mxGeometry relative="1" as="geometry">
            <mxPoint x="330" y="140" as="targetPoint" />
            <mxPoint x="190" y="50" as="sourcePoint" />
            <Array as="points">
              <mxPoint x="190" y="52" />
              <mxPoint x="270" y="52" />
              <mxPoint x="270" y="140" />
            </Array>
          </mxGeometry>
        </mxCell>
        <mxCell id="wuQlVSBRoirgcwjtB85D-15" value="" style="line;strokeWidth=1;fillColor=none;align=left;verticalAlign=middle;spacingTop=-1;spacingLeft=3;spacingRight=3;rotatable=0;labelPosition=right;points=[];portConstraint=eastwest;strokeColor=inherit;" parent="wuQlVSBRoirgcwjtB85D-13" vertex="1">
          <mxGeometry y="52" width="190" height="8" as="geometry" />
        </mxCell>
        <mxCell id="wuQlVSBRoirgcwjtB85D-16" value="+ blockAccount(Account): void&lt;div&gt;+ unblockAccount(Account): void&lt;/div&gt;" style="text;strokeColor=none;fillColor=none;align=left;verticalAlign=top;spacingLeft=4;spacingRight=4;overflow=hidden;rotatable=0;points=[[0,0.5],[1,0.5]];portConstraint=eastwest;whiteSpace=wrap;html=1;" parent="wuQlVSBRoirgcwjtB85D-13" vertex="1">
          <mxGeometry y="60" width="190" height="40" as="geometry" />
        </mxCell>
        <mxCell id="wuQlVSBRoirgcwjtB85D-18" style="edgeStyle=orthogonalEdgeStyle;rounded=0;orthogonalLoop=1;jettySize=auto;html=1;entryX=0;entryY=0.5;entryDx=0;entryDy=0;endSize=10;endArrow=block;endFill=0;" parent="1" source="wuQlVSBRoirgcwjtB85D-10" target="wuQlVSBRoirgcwjtB85D-1" edge="1">
          <mxGeometry relative="1" as="geometry" />
        </mxCell>
        <mxCell id="wuQlVSBRoirgcwjtB85D-20" value="&amp;lt;Interface&amp;gt;&lt;div&gt;Sport&lt;/div&gt;" style="swimlane;fontStyle=1;align=center;verticalAlign=top;childLayout=stackLayout;horizontal=1;startSize=40;horizontalStack=0;resizeParent=1;resizeParentMax=0;resizeLast=0;collapsible=1;marginBottom=0;whiteSpace=wrap;html=1;" parent="1" vertex="1">
          <mxGeometry x="360" y="530" width="160" height="80" as="geometry" />
        </mxCell>
        <mxCell id="wuQlVSBRoirgcwjtB85D-22" value="" style="line;strokeWidth=1;fillColor=none;align=left;verticalAlign=middle;spacingTop=-1;spacingLeft=3;spacingRight=3;rotatable=0;labelPosition=right;points=[];portConstraint=eastwest;strokeColor=inherit;" parent="wuQlVSBRoirgcwjtB85D-20" vertex="1">
          <mxGeometry y="40" width="160" height="8" as="geometry" />
        </mxCell>
        <mxCell id="wuQlVSBRoirgcwjtB85D-23" value="+ lineupSize(): int" style="text;strokeColor=none;fillColor=none;align=left;verticalAlign=top;spacingLeft=4;spacingRight=4;overflow=hidden;rotatable=0;points=[[0,0.5],[1,0.5]];portConstraint=eastwest;whiteSpace=wrap;html=1;" parent="wuQlVSBRoirgcwjtB85D-20" vertex="1">
          <mxGeometry y="48" width="160" height="32" as="geometry" />
        </mxCell>
        <mxCell id="wuQlVSBRoirgcwjtB85D-24" value="Football" style="swimlane;fontStyle=1;align=center;verticalAlign=top;childLayout=stackLayout;horizontal=1;startSize=26;horizontalStack=0;resizeParent=1;resizeParentMax=0;resizeLast=0;collapsible=1;marginBottom=0;whiteSpace=wrap;html=1;" parent="1" vertex="1">
          <mxGeometry x="30" y="600" width="210" height="90" as="geometry" />
        </mxCell>
        <mxCell id="wuQlVSBRoirgcwjtB85D-25" value="+" style="text;strokeColor=none;fillColor=none;align=left;verticalAlign=top;spacingLeft=4;spacingRight=4;overflow=hidden;rotatable=0;points=[[0,0.5],[1,0.5]];portConstraint=eastwest;whiteSpace=wrap;html=1;" parent="wuQlVSBRoirgcwjtB85D-24" vertex="1">
          <mxGeometry y="26" width="210" height="24" as="geometry" />
        </mxCell>
        <mxCell id="wuQlVSBRoirgcwjtB85D-26" value="" style="line;strokeWidth=1;fillColor=none;align=left;verticalAlign=middle;spacingTop=-1;spacingLeft=3;spacingRight=3;rotatable=0;labelPosition=right;points=[];portConstraint=eastwest;strokeColor=inherit;" parent="wuQlVSBRoirgcwjtB85D-24" vertex="1">
          <mxGeometry y="50" width="210" height="8" as="geometry" />
        </mxCell>
        <mxCell id="wuQlVSBRoirgcwjtB85D-27" value="+ lineupSize(): int" style="text;strokeColor=none;fillColor=none;align=left;verticalAlign=top;spacingLeft=4;spacingRight=4;overflow=hidden;rotatable=0;points=[[0,0.5],[1,0.5]];portConstraint=eastwest;whiteSpace=wrap;html=1;" parent="wuQlVSBRoirgcwjtB85D-24" vertex="1">
          <mxGeometry y="58" width="210" height="32" as="geometry" />
        </mxCell>
        <mxCell id="wuQlVSBRoirgcwjtB85D-28" value="Cricket" style="swimlane;fontStyle=1;align=center;verticalAlign=top;childLayout=stackLayout;horizontal=1;startSize=26;horizontalStack=0;resizeParent=1;resizeParentMax=0;resizeLast=0;collapsible=1;marginBottom=0;whiteSpace=wrap;html=1;" parent="1" vertex="1">
          <mxGeometry x="30" y="420" width="190" height="90" as="geometry" />
        </mxCell>
        <mxCell id="wuQlVSBRoirgcwjtB85D-29" value="+" style="text;strokeColor=none;fillColor=none;align=left;verticalAlign=top;spacingLeft=4;spacingRight=4;overflow=hidden;rotatable=0;points=[[0,0.5],[1,0.5]];portConstraint=eastwest;whiteSpace=wrap;html=1;" parent="wuQlVSBRoirgcwjtB85D-28" vertex="1">
          <mxGeometry y="26" width="190" height="26" as="geometry" />
        </mxCell>
        <mxCell id="wuQlVSBRoirgcwjtB85D-30" style="edgeStyle=orthogonalEdgeStyle;rounded=0;orthogonalLoop=1;jettySize=auto;html=1;endSize=10;endArrow=block;endFill=0;entryX=0;entryY=0.5;entryDx=0;entryDy=0;" parent="wuQlVSBRoirgcwjtB85D-28" target="wuQlVSBRoirgcwjtB85D-20" edge="1">
          <mxGeometry relative="1" as="geometry">
            <mxPoint x="330" y="100" as="targetPoint" />
            <mxPoint x="190" y="50" as="sourcePoint" />
            <Array as="points">
              <mxPoint x="190" y="52" />
              <mxPoint x="270" y="52" />
              <mxPoint x="270" y="150" />
            </Array>
          </mxGeometry>
        </mxCell>
        <mxCell id="wuQlVSBRoirgcwjtB85D-31" value="" style="line;strokeWidth=1;fillColor=none;align=left;verticalAlign=middle;spacingTop=-1;spacingLeft=3;spacingRight=3;rotatable=0;labelPosition=right;points=[];portConstraint=eastwest;strokeColor=inherit;" parent="wuQlVSBRoirgcwjtB85D-28" vertex="1">
          <mxGeometry y="52" width="190" height="8" as="geometry" />
        </mxCell>
        <mxCell id="wuQlVSBRoirgcwjtB85D-32" value="+ lineupSize(): int" style="text;strokeColor=none;fillColor=none;align=left;verticalAlign=top;spacingLeft=4;spacingRight=4;overflow=hidden;rotatable=0;points=[[0,0.5],[1,0.5]];portConstraint=eastwest;whiteSpace=wrap;html=1;" parent="wuQlVSBRoirgcwjtB85D-28" vertex="1">
          <mxGeometry y="60" width="190" height="30" as="geometry" />
        </mxCell>
        <mxCell id="wuQlVSBRoirgcwjtB85D-33" style="edgeStyle=orthogonalEdgeStyle;rounded=0;orthogonalLoop=1;jettySize=auto;html=1;entryX=0;entryY=0.5;entryDx=0;entryDy=0;endSize=10;endArrow=block;endFill=0;" parent="1" source="wuQlVSBRoirgcwjtB85D-25" target="wuQlVSBRoirgcwjtB85D-20" edge="1">
          <mxGeometry relative="1" as="geometry" />
        </mxCell>
        <mxCell id="wuQlVSBRoirgcwjtB85D-35" value="&amp;lt;Abstract&amp;gt;&lt;div&gt;Player&lt;/div&gt;" style="swimlane;fontStyle=1;align=center;verticalAlign=top;childLayout=stackLayout;horizontal=1;startSize=40;horizontalStack=0;resizeParent=1;resizeParentMax=0;resizeLast=0;collapsible=1;marginBottom=0;whiteSpace=wrap;html=1;" parent="1" vertex="1">
          <mxGeometry x="370" y="870" width="160" height="130" as="geometry" />
        </mxCell>
        <mxCell id="wuQlVSBRoirgcwjtB85D-48" value="+ name: string&lt;div&gt;+ dob: date&lt;/div&gt;&lt;div&gt;+ country: string&lt;/div&gt;" style="text;strokeColor=none;fillColor=none;align=left;verticalAlign=top;spacingLeft=4;spacingRight=4;overflow=hidden;rotatable=0;points=[[0,0.5],[1,0.5]];portConstraint=eastwest;whiteSpace=wrap;html=1;" parent="wuQlVSBRoirgcwjtB85D-35" vertex="1">
          <mxGeometry y="40" width="160" height="50" as="geometry" />
        </mxCell>
        <mxCell id="wuQlVSBRoirgcwjtB85D-36" value="" style="line;strokeWidth=1;fillColor=none;align=left;verticalAlign=middle;spacingTop=-1;spacingLeft=3;spacingRight=3;rotatable=0;labelPosition=right;points=[];portConstraint=eastwest;strokeColor=inherit;" parent="wuQlVSBRoirgcwjtB85D-35" vertex="1">
          <mxGeometry y="90" width="160" height="14" as="geometry" />
        </mxCell>
        <mxCell id="wuQlVSBRoirgcwjtB85D-37" value="+" style="text;strokeColor=none;fillColor=none;align=left;verticalAlign=top;spacingLeft=4;spacingRight=4;overflow=hidden;rotatable=0;points=[[0,0.5],[1,0.5]];portConstraint=eastwest;whiteSpace=wrap;html=1;" parent="wuQlVSBRoirgcwjtB85D-35" vertex="1">
          <mxGeometry y="104" width="160" height="26" as="geometry" />
        </mxCell>
        <mxCell id="wuQlVSBRoirgcwjtB85D-38" value="Football" style="swimlane;fontStyle=1;align=center;verticalAlign=top;childLayout=stackLayout;horizontal=1;startSize=26;horizontalStack=0;resizeParent=1;resizeParentMax=0;resizeLast=0;collapsible=1;marginBottom=0;whiteSpace=wrap;html=1;" parent="1" vertex="1">
          <mxGeometry x="40" y="940" width="210" height="110" as="geometry" />
        </mxCell>
        <mxCell id="wuQlVSBRoirgcwjtB85D-39" value="+ type: FootballPlayerType&lt;div&gt;+ careerGoals: int&lt;/div&gt;" style="text;strokeColor=none;fillColor=none;align=left;verticalAlign=top;spacingLeft=4;spacingRight=4;overflow=hidden;rotatable=0;points=[[0,0.5],[1,0.5]];portConstraint=eastwest;whiteSpace=wrap;html=1;" parent="wuQlVSBRoirgcwjtB85D-38" vertex="1">
          <mxGeometry y="26" width="210" height="44" as="geometry" />
        </mxCell>
        <mxCell id="wuQlVSBRoirgcwjtB85D-40" value="" style="line;strokeWidth=1;fillColor=none;align=left;verticalAlign=middle;spacingTop=-1;spacingLeft=3;spacingRight=3;rotatable=0;labelPosition=right;points=[];portConstraint=eastwest;strokeColor=inherit;" parent="wuQlVSBRoirgcwjtB85D-38" vertex="1">
          <mxGeometry y="70" width="210" height="8" as="geometry" />
        </mxCell>
        <mxCell id="wuQlVSBRoirgcwjtB85D-41" value="+" style="text;strokeColor=none;fillColor=none;align=left;verticalAlign=top;spacingLeft=4;spacingRight=4;overflow=hidden;rotatable=0;points=[[0,0.5],[1,0.5]];portConstraint=eastwest;whiteSpace=wrap;html=1;" parent="wuQlVSBRoirgcwjtB85D-38" vertex="1">
          <mxGeometry y="78" width="210" height="32" as="geometry" />
        </mxCell>
        <mxCell id="wuQlVSBRoirgcwjtB85D-42" value="CricketPlayer" style="swimlane;fontStyle=1;align=center;verticalAlign=top;childLayout=stackLayout;horizontal=1;startSize=26;horizontalStack=0;resizeParent=1;resizeParentMax=0;resizeLast=0;collapsible=1;marginBottom=0;whiteSpace=wrap;html=1;" parent="1" vertex="1">
          <mxGeometry x="40" y="760" width="190" height="118" as="geometry" />
        </mxCell>
        <mxCell id="wuQlVSBRoirgcwjtB85D-43" value="+ type: CricketPlayerType&lt;div&gt;+ careerRuns: int&lt;/div&gt;&lt;div&gt;+ careerWickets: int&lt;/div&gt;" style="text;strokeColor=none;fillColor=none;align=left;verticalAlign=top;spacingLeft=4;spacingRight=4;overflow=hidden;rotatable=0;points=[[0,0.5],[1,0.5]];portConstraint=eastwest;whiteSpace=wrap;html=1;" parent="wuQlVSBRoirgcwjtB85D-42" vertex="1">
          <mxGeometry y="26" width="190" height="54" as="geometry" />
        </mxCell>
        <mxCell id="wuQlVSBRoirgcwjtB85D-44" style="edgeStyle=orthogonalEdgeStyle;rounded=0;orthogonalLoop=1;jettySize=auto;html=1;endSize=10;endArrow=block;endFill=0;entryX=0;entryY=0.5;entryDx=0;entryDy=0;" parent="wuQlVSBRoirgcwjtB85D-42" target="wuQlVSBRoirgcwjtB85D-48" edge="1">
          <mxGeometry relative="1" as="geometry">
            <mxPoint x="330" y="175" as="targetPoint" />
            <mxPoint x="190" y="50" as="sourcePoint" />
            <Array as="points">
              <mxPoint x="190" y="52" />
              <mxPoint x="270" y="52" />
              <mxPoint x="270" y="175" />
            </Array>
          </mxGeometry>
        </mxCell>
        <mxCell id="wuQlVSBRoirgcwjtB85D-45" value="" style="line;strokeWidth=1;fillColor=none;align=left;verticalAlign=middle;spacingTop=-1;spacingLeft=3;spacingRight=3;rotatable=0;labelPosition=right;points=[];portConstraint=eastwest;strokeColor=inherit;" parent="wuQlVSBRoirgcwjtB85D-42" vertex="1">
          <mxGeometry y="80" width="190" height="8" as="geometry" />
        </mxCell>
        <mxCell id="wuQlVSBRoirgcwjtB85D-46" value="+" style="text;strokeColor=none;fillColor=none;align=left;verticalAlign=top;spacingLeft=4;spacingRight=4;overflow=hidden;rotatable=0;points=[[0,0.5],[1,0.5]];portConstraint=eastwest;whiteSpace=wrap;html=1;" parent="wuQlVSBRoirgcwjtB85D-42" vertex="1">
          <mxGeometry y="88" width="190" height="30" as="geometry" />
        </mxCell>
        <mxCell id="wuQlVSBRoirgcwjtB85D-47" style="edgeStyle=orthogonalEdgeStyle;rounded=0;orthogonalLoop=1;jettySize=auto;html=1;entryX=0;entryY=0.5;entryDx=0;entryDy=0;endSize=10;endArrow=block;endFill=0;" parent="1" source="wuQlVSBRoirgcwjtB85D-39" target="wuQlVSBRoirgcwjtB85D-35" edge="1">
          <mxGeometry relative="1" as="geometry">
            <Array as="points">
              <mxPoint x="310" y="988" />
              <mxPoint x="310" y="935" />
            </Array>
          </mxGeometry>
        </mxCell>
        <mxCell id="wuQlVSBRoirgcwjtB85D-50" value="SquadMember" style="swimlane;fontStyle=1;align=center;verticalAlign=top;childLayout=stackLayout;horizontal=1;startSize=26;horizontalStack=0;resizeParent=1;resizeParentMax=0;resizeLast=0;collapsible=1;marginBottom=0;whiteSpace=wrap;html=1;" parent="1" vertex="1">
          <mxGeometry x="380" y="686" width="160" height="124" as="geometry" />
        </mxCell>
        <mxCell id="wuQlVSBRoirgcwjtB85D-51" value="+ player: Player&lt;div&gt;+ creditCost: double&lt;/div&gt;&lt;div&gt;+ squad: Squad&lt;/div&gt;&lt;div&gt;+ score: double&lt;/div&gt;" style="text;strokeColor=none;fillColor=none;align=left;verticalAlign=top;spacingLeft=4;spacingRight=4;overflow=hidden;rotatable=0;points=[[0,0.5],[1,0.5]];portConstraint=eastwest;whiteSpace=wrap;html=1;" parent="wuQlVSBRoirgcwjtB85D-50" vertex="1">
          <mxGeometry y="26" width="160" height="64" as="geometry" />
        </mxCell>
        <mxCell id="wuQlVSBRoirgcwjtB85D-52" value="" style="line;strokeWidth=1;fillColor=none;align=left;verticalAlign=middle;spacingTop=-1;spacingLeft=3;spacingRight=3;rotatable=0;labelPosition=right;points=[];portConstraint=eastwest;strokeColor=inherit;" parent="wuQlVSBRoirgcwjtB85D-50" vertex="1">
          <mxGeometry y="90" width="160" height="8" as="geometry" />
        </mxCell>
        <mxCell id="wuQlVSBRoirgcwjtB85D-53" value="+" style="text;strokeColor=none;fillColor=none;align=left;verticalAlign=top;spacingLeft=4;spacingRight=4;overflow=hidden;rotatable=0;points=[[0,0.5],[1,0.5]];portConstraint=eastwest;whiteSpace=wrap;html=1;" parent="wuQlVSBRoirgcwjtB85D-50" vertex="1">
          <mxGeometry y="98" width="160" height="26" as="geometry" />
        </mxCell>
        <mxCell id="wuQlVSBRoirgcwjtB85D-54" value="Squad" style="swimlane;fontStyle=1;align=center;verticalAlign=top;childLayout=stackLayout;horizontal=1;startSize=26;horizontalStack=0;resizeParent=1;resizeParentMax=0;resizeLast=0;collapsible=1;marginBottom=0;whiteSpace=wrap;html=1;" parent="1" vertex="1">
          <mxGeometry x="661" y="695" width="190" height="104" as="geometry" />
        </mxCell>
        <mxCell id="wuQlVSBRoirgcwjtB85D-55" value="+ members: List&amp;lt;SquadMember&amp;gt;&lt;div&gt;+ startingLineup: Option&amp;lt;Lineup&amp;gt;&lt;/div&gt;" style="text;strokeColor=none;fillColor=none;align=left;verticalAlign=top;spacingLeft=4;spacingRight=4;overflow=hidden;rotatable=0;points=[[0,0.5],[1,0.5]];portConstraint=eastwest;whiteSpace=wrap;html=1;" parent="wuQlVSBRoirgcwjtB85D-54" vertex="1">
          <mxGeometry y="26" width="190" height="44" as="geometry" />
        </mxCell>
        <mxCell id="wuQlVSBRoirgcwjtB85D-56" value="" style="line;strokeWidth=1;fillColor=none;align=left;verticalAlign=middle;spacingTop=-1;spacingLeft=3;spacingRight=3;rotatable=0;labelPosition=right;points=[];portConstraint=eastwest;strokeColor=inherit;" parent="wuQlVSBRoirgcwjtB85D-54" vertex="1">
          <mxGeometry y="70" width="190" height="8" as="geometry" />
        </mxCell>
        <mxCell id="wuQlVSBRoirgcwjtB85D-57" value="+ setStartingLineup(Lineup): void" style="text;strokeColor=none;fillColor=none;align=left;verticalAlign=top;spacingLeft=4;spacingRight=4;overflow=hidden;rotatable=0;points=[[0,0.5],[1,0.5]];portConstraint=eastwest;whiteSpace=wrap;html=1;" parent="wuQlVSBRoirgcwjtB85D-54" vertex="1">
          <mxGeometry y="78" width="190" height="26" as="geometry" />
        </mxCell>
        <mxCell id="wuQlVSBRoirgcwjtB85D-60" style="edgeStyle=orthogonalEdgeStyle;rounded=0;orthogonalLoop=1;jettySize=auto;html=1;entryX=0;entryY=0.5;entryDx=0;entryDy=0;endArrow=diamondThin;endFill=1;endSize=12;startSize=10;" parent="1" source="wuQlVSBRoirgcwjtB85D-51" target="wuQlVSBRoirgcwjtB85D-55" edge="1">
          <mxGeometry relative="1" as="geometry" />
        </mxCell>
        <mxCell id="wuQlVSBRoirgcwjtB85D-61" style="edgeStyle=orthogonalEdgeStyle;rounded=0;orthogonalLoop=1;jettySize=auto;html=1;entryX=0.5;entryY=0;entryDx=0;entryDy=0;endSize=10;" parent="1" source="wuQlVSBRoirgcwjtB85D-53" target="wuQlVSBRoirgcwjtB85D-35" edge="1">
          <mxGeometry relative="1" as="geometry">
            <Array as="points">
              <mxPoint x="450" y="800" />
              <mxPoint x="450" y="800" />
            </Array>
          </mxGeometry>
        </mxCell>
        <mxCell id="wuQlVSBRoirgcwjtB85D-62" value="Lineup" style="swimlane;fontStyle=1;align=center;verticalAlign=top;childLayout=stackLayout;horizontal=1;startSize=26;horizontalStack=0;resizeParent=1;resizeParentMax=0;resizeLast=0;collapsible=1;marginBottom=0;whiteSpace=wrap;html=1;" parent="1" vertex="1">
          <mxGeometry x="660" y="878" width="190" height="86" as="geometry" />
        </mxCell>
        <mxCell id="wuQlVSBRoirgcwjtB85D-63" value="+ players: List&amp;lt;SquadMembers&amp;gt;" style="text;strokeColor=none;fillColor=none;align=left;verticalAlign=top;spacingLeft=4;spacingRight=4;overflow=hidden;rotatable=0;points=[[0,0.5],[1,0.5]];portConstraint=eastwest;whiteSpace=wrap;html=1;" parent="wuQlVSBRoirgcwjtB85D-62" vertex="1">
          <mxGeometry y="26" width="190" height="26" as="geometry" />
        </mxCell>
        <mxCell id="wuQlVSBRoirgcwjtB85D-64" value="" style="line;strokeWidth=1;fillColor=none;align=left;verticalAlign=middle;spacingTop=-1;spacingLeft=3;spacingRight=3;rotatable=0;labelPosition=right;points=[];portConstraint=eastwest;strokeColor=inherit;" parent="wuQlVSBRoirgcwjtB85D-62" vertex="1">
          <mxGeometry y="52" width="190" height="8" as="geometry" />
        </mxCell>
        <mxCell id="wuQlVSBRoirgcwjtB85D-65" value="+ addPlayer(SquadMember): void" style="text;strokeColor=none;fillColor=none;align=left;verticalAlign=top;spacingLeft=4;spacingRight=4;overflow=hidden;rotatable=0;points=[[0,0.5],[1,0.5]];portConstraint=eastwest;whiteSpace=wrap;html=1;" parent="wuQlVSBRoirgcwjtB85D-62" vertex="1">
          <mxGeometry y="60" width="190" height="26" as="geometry" />
        </mxCell>
        <mxCell id="wuQlVSBRoirgcwjtB85D-66" style="edgeStyle=orthogonalEdgeStyle;rounded=0;orthogonalLoop=1;jettySize=auto;html=1;entryX=0.5;entryY=0;entryDx=0;entryDy=0;startSize=10;endSize=10;" parent="1" source="wuQlVSBRoirgcwjtB85D-57" target="wuQlVSBRoirgcwjtB85D-62" edge="1">
          <mxGeometry relative="1" as="geometry">
            <Array as="points">
              <mxPoint x="755" y="810" />
              <mxPoint x="755" y="810" />
            </Array>
          </mxGeometry>
        </mxCell>
        <mxCell id="wuQlVSBRoirgcwjtB85D-71" value="Match" style="swimlane;fontStyle=1;align=center;verticalAlign=top;childLayout=stackLayout;horizontal=1;startSize=26;horizontalStack=0;resizeParent=1;resizeParentMax=0;resizeLast=0;collapsible=1;marginBottom=0;whiteSpace=wrap;html=1;" parent="1" vertex="1">
          <mxGeometry x="670" y="440" width="170" height="200" as="geometry" />
        </mxCell>
        <mxCell id="wuQlVSBRoirgcwjtB85D-72" value="+ sport: Sport&lt;div&gt;+ squads: List&amp;lt;Squad&amp;gt;&lt;/div&gt;&lt;div&gt;+ startTime: timestamp&lt;/div&gt;&lt;div&gt;+ endTime: timestamp&lt;/div&gt;&lt;div&gt;+ status: MatchStatus&lt;/div&gt;&lt;div&gt;+ winner: Option&amp;lt;Squad&amp;gt;&lt;/div&gt;&lt;div&gt;+ events: List&amp;lt;MatchEvents&amp;gt;&lt;/div&gt;&lt;div&gt;+ contests: List&amp;lt;Contest&amp;gt;&lt;/div&gt;" style="text;strokeColor=none;fillColor=none;align=left;verticalAlign=top;spacingLeft=4;spacingRight=4;overflow=hidden;rotatable=0;points=[[0,0.5],[1,0.5]];portConstraint=eastwest;whiteSpace=wrap;html=1;" parent="wuQlVSBRoirgcwjtB85D-71" vertex="1">
          <mxGeometry y="26" width="170" height="124" as="geometry" />
        </mxCell>
        <mxCell id="wuQlVSBRoirgcwjtB85D-73" value="" style="line;strokeWidth=1;fillColor=none;align=left;verticalAlign=middle;spacingTop=-1;spacingLeft=3;spacingRight=3;rotatable=0;labelPosition=right;points=[];portConstraint=eastwest;strokeColor=inherit;" parent="wuQlVSBRoirgcwjtB85D-71" vertex="1">
          <mxGeometry y="150" width="170" height="8" as="geometry" />
        </mxCell>
        <mxCell id="wuQlVSBRoirgcwjtB85D-74" value="+ addEvent(MatchEvent)&lt;div&gt;+ addContest(Contest)&lt;/div&gt;" style="text;strokeColor=none;fillColor=none;align=left;verticalAlign=top;spacingLeft=4;spacingRight=4;overflow=hidden;rotatable=0;points=[[0,0.5],[1,0.5]];portConstraint=eastwest;whiteSpace=wrap;html=1;" parent="wuQlVSBRoirgcwjtB85D-71" vertex="1">
          <mxGeometry y="158" width="170" height="42" as="geometry" />
        </mxCell>
        <mxCell id="wuQlVSBRoirgcwjtB85D-77" value="&amp;lt;Abstract&amp;gt;&lt;div&gt;Contest&lt;/div&gt;" style="swimlane;fontStyle=1;align=center;verticalAlign=top;childLayout=stackLayout;horizontal=1;startSize=40;horizontalStack=0;resizeParent=1;resizeParentMax=0;resizeLast=0;collapsible=1;marginBottom=0;whiteSpace=wrap;html=1;" parent="1" vertex="1">
          <mxGeometry x="360" y="320" width="210" height="144" as="geometry" />
        </mxCell>
        <mxCell id="wuQlVSBRoirgcwjtB85D-78" value="+ match: Match&lt;div&gt;+ participants: List&amp;lt;Participant&amp;gt;&lt;/div&gt;&lt;div&gt;+ status: ContestStatus&lt;/div&gt;&lt;div&gt;+ startingBudget: double&lt;/div&gt;" style="text;strokeColor=none;fillColor=none;align=left;verticalAlign=top;spacingLeft=4;spacingRight=4;overflow=hidden;rotatable=0;points=[[0,0.5],[1,0.5]];portConstraint=eastwest;whiteSpace=wrap;html=1;" parent="wuQlVSBRoirgcwjtB85D-77" vertex="1">
          <mxGeometry y="40" width="210" height="70" as="geometry" />
        </mxCell>
        <mxCell id="wuQlVSBRoirgcwjtB85D-79" value="" style="line;strokeWidth=1;fillColor=none;align=left;verticalAlign=middle;spacingTop=-1;spacingLeft=3;spacingRight=3;rotatable=0;labelPosition=right;points=[];portConstraint=eastwest;strokeColor=inherit;" parent="wuQlVSBRoirgcwjtB85D-77" vertex="1">
          <mxGeometry y="110" width="210" height="8" as="geometry" />
        </mxCell>
        <mxCell id="wuQlVSBRoirgcwjtB85D-80" value="+ participate(User, VirtualTeam): void" style="text;strokeColor=none;fillColor=none;align=left;verticalAlign=top;spacingLeft=4;spacingRight=4;overflow=hidden;rotatable=0;points=[[0,0.5],[1,0.5]];portConstraint=eastwest;whiteSpace=wrap;html=1;" parent="wuQlVSBRoirgcwjtB85D-77" vertex="1">
          <mxGeometry y="118" width="210" height="26" as="geometry" />
        </mxCell>
        <mxCell id="wuQlVSBRoirgcwjtB85D-81" value="PracticeContest" style="swimlane;fontStyle=1;align=center;verticalAlign=top;childLayout=stackLayout;horizontal=1;startSize=26;horizontalStack=0;resizeParent=1;resizeParentMax=0;resizeLast=0;collapsible=1;marginBottom=0;whiteSpace=wrap;html=1;" parent="1" vertex="1">
          <mxGeometry x="660" y="40" width="210" height="86" as="geometry" />
        </mxCell>
        <mxCell id="wuQlVSBRoirgcwjtB85D-82" value="+" style="text;strokeColor=none;fillColor=none;align=left;verticalAlign=top;spacingLeft=4;spacingRight=4;overflow=hidden;rotatable=0;points=[[0,0.5],[1,0.5]];portConstraint=eastwest;whiteSpace=wrap;html=1;" parent="wuQlVSBRoirgcwjtB85D-81" vertex="1">
          <mxGeometry y="26" width="210" height="26" as="geometry" />
        </mxCell>
        <mxCell id="wuQlVSBRoirgcwjtB85D-83" value="" style="line;strokeWidth=1;fillColor=none;align=left;verticalAlign=middle;spacingTop=-1;spacingLeft=3;spacingRight=3;rotatable=0;labelPosition=right;points=[];portConstraint=eastwest;strokeColor=inherit;" parent="wuQlVSBRoirgcwjtB85D-81" vertex="1">
          <mxGeometry y="52" width="210" height="8" as="geometry" />
        </mxCell>
        <mxCell id="wuQlVSBRoirgcwjtB85D-84" value="+ participate(User, VirtualTeam): void" style="text;strokeColor=none;fillColor=none;align=left;verticalAlign=top;spacingLeft=4;spacingRight=4;overflow=hidden;rotatable=0;points=[[0,0.5],[1,0.5]];portConstraint=eastwest;whiteSpace=wrap;html=1;" parent="wuQlVSBRoirgcwjtB85D-81" vertex="1">
          <mxGeometry y="60" width="210" height="26" as="geometry" />
        </mxCell>
        <mxCell id="wuQlVSBRoirgcwjtB85D-85" style="edgeStyle=orthogonalEdgeStyle;rounded=0;orthogonalLoop=1;jettySize=auto;html=1;entryX=1.012;entryY=0.211;entryDx=0;entryDy=0;entryPerimeter=0;endSize=10;" parent="1" source="wuQlVSBRoirgcwjtB85D-78" target="wuQlVSBRoirgcwjtB85D-12" edge="1">
          <mxGeometry relative="1" as="geometry" />
        </mxCell>
        <mxCell id="wuQlVSBRoirgcwjtB85D-86" value="RealContest" style="swimlane;fontStyle=1;align=center;verticalAlign=top;childLayout=stackLayout;horizontal=1;startSize=26;horizontalStack=0;resizeParent=1;resizeParentMax=0;resizeLast=0;collapsible=1;marginBottom=0;whiteSpace=wrap;html=1;" parent="1" vertex="1">
          <mxGeometry x="660" y="170" width="210" height="104" as="geometry" />
        </mxCell>
        <mxCell id="wuQlVSBRoirgcwjtB85D-87" value="+ entryFee: double&lt;div&gt;+ prizeMoney: double&lt;/div&gt;" style="text;strokeColor=none;fillColor=none;align=left;verticalAlign=top;spacingLeft=4;spacingRight=4;overflow=hidden;rotatable=0;points=[[0,0.5],[1,0.5]];portConstraint=eastwest;whiteSpace=wrap;html=1;" parent="wuQlVSBRoirgcwjtB85D-86" vertex="1">
          <mxGeometry y="26" width="210" height="44" as="geometry" />
        </mxCell>
        <mxCell id="wuQlVSBRoirgcwjtB85D-88" value="" style="line;strokeWidth=1;fillColor=none;align=left;verticalAlign=middle;spacingTop=-1;spacingLeft=3;spacingRight=3;rotatable=0;labelPosition=right;points=[];portConstraint=eastwest;strokeColor=inherit;" parent="wuQlVSBRoirgcwjtB85D-86" vertex="1">
          <mxGeometry y="70" width="210" height="8" as="geometry" />
        </mxCell>
        <mxCell id="wuQlVSBRoirgcwjtB85D-89" value="+ participate(User, VirtualTeam): void" style="text;strokeColor=none;fillColor=none;align=left;verticalAlign=top;spacingLeft=4;spacingRight=4;overflow=hidden;rotatable=0;points=[[0,0.5],[1,0.5]];portConstraint=eastwest;whiteSpace=wrap;html=1;" parent="wuQlVSBRoirgcwjtB85D-86" vertex="1">
          <mxGeometry y="78" width="210" height="26" as="geometry" />
        </mxCell>
        <mxCell id="wuQlVSBRoirgcwjtB85D-90" style="edgeStyle=orthogonalEdgeStyle;rounded=0;orthogonalLoop=1;jettySize=auto;html=1;exitX=-0.02;exitY=0.647;exitDx=0;exitDy=0;exitPerimeter=0;endSize=10;endArrow=block;endFill=0;" parent="1" source="wuQlVSBRoirgcwjtB85D-87" edge="1">
          <mxGeometry relative="1" as="geometry">
            <mxPoint x="450" y="320" as="targetPoint" />
            <Array as="points">
              <mxPoint x="590" y="224" />
              <mxPoint x="590" y="270" />
              <mxPoint x="450" y="270" />
              <mxPoint x="450" y="320" />
            </Array>
          </mxGeometry>
        </mxCell>
        <mxCell id="wuQlVSBRoirgcwjtB85D-91" style="edgeStyle=orthogonalEdgeStyle;rounded=0;orthogonalLoop=1;jettySize=auto;html=1;endSize=10;endArrow=block;endFill=0;" parent="1" source="wuQlVSBRoirgcwjtB85D-82" edge="1">
          <mxGeometry relative="1" as="geometry">
            <mxPoint x="450" y="320" as="targetPoint" />
            <Array as="points">
              <mxPoint x="590" y="79" />
              <mxPoint x="590" y="270" />
              <mxPoint x="450" y="270" />
              <mxPoint x="450" y="320" />
            </Array>
          </mxGeometry>
        </mxCell>
        <mxCell id="wuQlVSBRoirgcwjtB85D-93" style="edgeStyle=orthogonalEdgeStyle;rounded=0;orthogonalLoop=1;jettySize=auto;html=1;entryX=0;entryY=0.5;entryDx=0;entryDy=0;endSize=12;endArrow=diamondThin;endFill=0;" parent="1" source="wuQlVSBRoirgcwjtB85D-51" target="wuQlVSBRoirgcwjtB85D-63" edge="1">
          <mxGeometry relative="1" as="geometry" />
        </mxCell>
        <mxCell id="wuQlVSBRoirgcwjtB85D-100" style="edgeStyle=orthogonalEdgeStyle;rounded=0;orthogonalLoop=1;jettySize=auto;html=1;jumpStyle=arc;exitX=0;exitY=0.5;exitDx=0;exitDy=0;endSize=10;" parent="1" source="wuQlVSBRoirgcwjtB85D-95" edge="1">
          <mxGeometry relative="1" as="geometry">
            <mxPoint x="240" y="290" as="targetPoint" />
            <Array as="points">
              <mxPoint x="620" y="343" />
              <mxPoint x="620" y="290" />
            </Array>
          </mxGeometry>
        </mxCell>
        <mxCell id="wuQlVSBRoirgcwjtB85D-94" value="VirtualTeam" style="swimlane;fontStyle=1;align=center;verticalAlign=top;childLayout=stackLayout;horizontal=1;startSize=26;horizontalStack=0;resizeParent=1;resizeParentMax=0;resizeLast=0;collapsible=1;marginBottom=0;whiteSpace=wrap;html=1;" parent="1" vertex="1">
          <mxGeometry x="675" y="300" width="160" height="94" as="geometry" />
        </mxCell>
        <mxCell id="wuQlVSBRoirgcwjtB85D-95" value="+ lineup: Lineup&lt;div&gt;+ match: Match&lt;/div&gt;" style="text;strokeColor=none;fillColor=none;align=left;verticalAlign=top;spacingLeft=4;spacingRight=4;overflow=hidden;rotatable=0;points=[[0,0.5],[1,0.5]];portConstraint=eastwest;whiteSpace=wrap;html=1;" parent="wuQlVSBRoirgcwjtB85D-94" vertex="1">
          <mxGeometry y="26" width="160" height="34" as="geometry" />
        </mxCell>
        <mxCell id="wuQlVSBRoirgcwjtB85D-96" value="" style="line;strokeWidth=1;fillColor=none;align=left;verticalAlign=middle;spacingTop=-1;spacingLeft=3;spacingRight=3;rotatable=0;labelPosition=right;points=[];portConstraint=eastwest;strokeColor=inherit;" parent="wuQlVSBRoirgcwjtB85D-94" vertex="1">
          <mxGeometry y="60" width="160" height="8" as="geometry" />
        </mxCell>
        <mxCell id="wuQlVSBRoirgcwjtB85D-97" value="+&amp;nbsp;" style="text;strokeColor=none;fillColor=none;align=left;verticalAlign=top;spacingLeft=4;spacingRight=4;overflow=hidden;rotatable=0;points=[[0,0.5],[1,0.5]];portConstraint=eastwest;whiteSpace=wrap;html=1;" parent="wuQlVSBRoirgcwjtB85D-94" vertex="1">
          <mxGeometry y="68" width="160" height="26" as="geometry" />
        </mxCell>
        <mxCell id="wuQlVSBRoirgcwjtB85D-99" style="edgeStyle=orthogonalEdgeStyle;rounded=0;orthogonalLoop=1;jettySize=auto;html=1;entryX=0.5;entryY=0;entryDx=0;entryDy=0;endArrow=none;endFill=0;exitX=0.505;exitY=1;exitDx=0;exitDy=0;exitPerimeter=0;" parent="1" source="wuQlVSBRoirgcwjtB85D-97" target="wuQlVSBRoirgcwjtB85D-71" edge="1">
          <mxGeometry relative="1" as="geometry" />
        </mxCell>
        <mxCell id="wuQlVSBRoirgcwjtB85D-103" style="edgeStyle=orthogonalEdgeStyle;rounded=0;orthogonalLoop=1;jettySize=auto;html=1;exitX=0.5;exitY=0;exitDx=0;exitDy=0;entryX=0.502;entryY=1;entryDx=0;entryDy=0;entryPerimeter=0;endSize=12;endArrow=diamondThin;endFill=1;" parent="1" source="wuQlVSBRoirgcwjtB85D-54" target="wuQlVSBRoirgcwjtB85D-74" edge="1">
          <mxGeometry relative="1" as="geometry">
            <Array as="points">
              <mxPoint x="755" y="695" />
            </Array>
          </mxGeometry>
        </mxCell>
        <mxCell id="wuQlVSBRoirgcwjtB85D-112" value="Participant" style="swimlane;fontStyle=1;align=center;verticalAlign=top;childLayout=stackLayout;horizontal=1;startSize=26;horizontalStack=0;resizeParent=1;resizeParentMax=0;resizeLast=0;collapsible=1;marginBottom=0;whiteSpace=wrap;html=1;" parent="1" vertex="1">
          <mxGeometry x="930" y="296" width="160" height="144" as="geometry" />
        </mxCell>
        <mxCell id="wuQlVSBRoirgcwjtB85D-113" value="+ user: User&lt;div&gt;+ contest: Contest&lt;/div&gt;&lt;div&gt;+ team: VirtualTeam&lt;/div&gt;&lt;div&gt;+ score: double&lt;/div&gt;&lt;div&gt;+ rank: int&lt;/div&gt;" style="text;strokeColor=none;fillColor=none;align=left;verticalAlign=top;spacingLeft=4;spacingRight=4;overflow=hidden;rotatable=0;points=[[0,0.5],[1,0.5]];portConstraint=eastwest;whiteSpace=wrap;html=1;" parent="wuQlVSBRoirgcwjtB85D-112" vertex="1">
          <mxGeometry y="26" width="160" height="84" as="geometry" />
        </mxCell>
        <mxCell id="wuQlVSBRoirgcwjtB85D-114" value="" style="line;strokeWidth=1;fillColor=none;align=left;verticalAlign=middle;spacingTop=-1;spacingLeft=3;spacingRight=3;rotatable=0;labelPosition=right;points=[];portConstraint=eastwest;strokeColor=inherit;" parent="wuQlVSBRoirgcwjtB85D-112" vertex="1">
          <mxGeometry y="110" width="160" height="8" as="geometry" />
        </mxCell>
        <mxCell id="wuQlVSBRoirgcwjtB85D-115" value="+ updateRank(int): void" style="text;strokeColor=none;fillColor=none;align=left;verticalAlign=top;spacingLeft=4;spacingRight=4;overflow=hidden;rotatable=0;points=[[0,0.5],[1,0.5]];portConstraint=eastwest;whiteSpace=wrap;html=1;" parent="wuQlVSBRoirgcwjtB85D-112" vertex="1">
          <mxGeometry y="118" width="160" height="26" as="geometry" />
        </mxCell>
        <mxCell id="wuQlVSBRoirgcwjtB85D-117" style="edgeStyle=orthogonalEdgeStyle;rounded=0;orthogonalLoop=1;jettySize=auto;html=1;entryX=1.005;entryY=0.792;entryDx=0;entryDy=0;entryPerimeter=0;jumpStyle=arc;endArrow=diamondThin;endFill=1;endSize=12;" parent="1" source="wuQlVSBRoirgcwjtB85D-113" target="wuQlVSBRoirgcwjtB85D-78" edge="1">
          <mxGeometry relative="1" as="geometry">
            <Array as="points">
              <mxPoint x="900" y="380" />
              <mxPoint x="900" y="415" />
            </Array>
          </mxGeometry>
        </mxCell>
        <mxCell id="wuQlVSBRoirgcwjtB85D-118" style="edgeStyle=orthogonalEdgeStyle;rounded=0;orthogonalLoop=1;jettySize=auto;html=1;entryX=1.021;entryY=0.175;entryDx=0;entryDy=0;entryPerimeter=0;jumpStyle=arc;endSize=10;" parent="1" source="wuQlVSBRoirgcwjtB85D-112" target="wuQlVSBRoirgcwjtB85D-10" edge="1">
          <mxGeometry relative="1" as="geometry">
            <Array as="points">
              <mxPoint x="900" y="368" />
              <mxPoint x="900" y="10" />
              <mxPoint x="320" y="10" />
              <mxPoint x="320" y="256" />
            </Array>
          </mxGeometry>
        </mxCell>
        <mxCell id="wuQlVSBRoirgcwjtB85D-119" value="ScoreUpdate" style="swimlane;fontStyle=1;align=center;verticalAlign=top;childLayout=stackLayout;horizontal=1;startSize=26;horizontalStack=0;resizeParent=1;resizeParentMax=0;resizeLast=0;collapsible=1;marginBottom=0;whiteSpace=wrap;html=1;" parent="1" vertex="1">
          <mxGeometry x="930" y="872" width="160" height="104" as="geometry" />
        </mxCell>
        <mxCell id="wuQlVSBRoirgcwjtB85D-120" value="+ player: SquadMember&lt;div&gt;+ scoreUpdate: double&lt;/div&gt;" style="text;strokeColor=none;fillColor=none;align=left;verticalAlign=top;spacingLeft=4;spacingRight=4;overflow=hidden;rotatable=0;points=[[0,0.5],[1,0.5]];portConstraint=eastwest;whiteSpace=wrap;html=1;" parent="wuQlVSBRoirgcwjtB85D-119" vertex="1">
          <mxGeometry y="26" width="160" height="44" as="geometry" />
        </mxCell>
        <mxCell id="wuQlVSBRoirgcwjtB85D-121" value="" style="line;strokeWidth=1;fillColor=none;align=left;verticalAlign=middle;spacingTop=-1;spacingLeft=3;spacingRight=3;rotatable=0;labelPosition=right;points=[];portConstraint=eastwest;strokeColor=inherit;" parent="wuQlVSBRoirgcwjtB85D-119" vertex="1">
          <mxGeometry y="70" width="160" height="8" as="geometry" />
        </mxCell>
        <mxCell id="wuQlVSBRoirgcwjtB85D-122" value="+ updateScore(Match): void" style="text;strokeColor=none;fillColor=none;align=left;verticalAlign=top;spacingLeft=4;spacingRight=4;overflow=hidden;rotatable=0;points=[[0,0.5],[1,0.5]];portConstraint=eastwest;whiteSpace=wrap;html=1;" parent="wuQlVSBRoirgcwjtB85D-119" vertex="1">
          <mxGeometry y="78" width="160" height="26" as="geometry" />
        </mxCell>
        <mxCell id="wuQlVSBRoirgcwjtB85D-123" value="&amp;lt;Interface&amp;gt;&lt;div&gt;ScoreUpdateAdapter&lt;/div&gt;" style="swimlane;fontStyle=1;align=center;verticalAlign=top;childLayout=stackLayout;horizontal=1;startSize=40;horizontalStack=0;resizeParent=1;resizeParentMax=0;resizeLast=0;collapsible=1;marginBottom=0;whiteSpace=wrap;html=1;" parent="1" vertex="1">
          <mxGeometry x="930" y="621" width="200" height="74" as="geometry" />
        </mxCell>
        <mxCell id="wuQlVSBRoirgcwjtB85D-125" value="" style="line;strokeWidth=1;fillColor=none;align=left;verticalAlign=middle;spacingTop=-1;spacingLeft=3;spacingRight=3;rotatable=0;labelPosition=right;points=[];portConstraint=eastwest;strokeColor=inherit;" parent="wuQlVSBRoirgcwjtB85D-123" vertex="1">
          <mxGeometry y="40" width="200" height="8" as="geometry" />
        </mxCell>
        <mxCell id="wuQlVSBRoirgcwjtB85D-126" value="+ calculateUpdates(): ScoreUpdate" style="text;strokeColor=none;fillColor=none;align=left;verticalAlign=top;spacingLeft=4;spacingRight=4;overflow=hidden;rotatable=0;points=[[0,0.5],[1,0.5]];portConstraint=eastwest;whiteSpace=wrap;html=1;" parent="wuQlVSBRoirgcwjtB85D-123" vertex="1">
          <mxGeometry y="48" width="200" height="26" as="geometry" />
        </mxCell>
        <mxCell id="wuQlVSBRoirgcwjtB85D-127" style="edgeStyle=orthogonalEdgeStyle;rounded=0;orthogonalLoop=1;jettySize=auto;html=1;entryX=1.02;entryY=0.591;entryDx=0;entryDy=0;entryPerimeter=0;endSize=10;" parent="1" source="wuQlVSBRoirgcwjtB85D-120" target="wuQlVSBRoirgcwjtB85D-72" edge="1">
          <mxGeometry relative="1" as="geometry" />
        </mxCell>
        <mxCell id="wuQlVSBRoirgcwjtB85D-132" value="&amp;lt;Abstract&amp;gt;&lt;div&gt;MatchEvent&lt;/div&gt;" style="swimlane;fontStyle=1;align=center;verticalAlign=top;childLayout=stackLayout;horizontal=1;startSize=40;horizontalStack=0;resizeParent=1;resizeParentMax=0;resizeLast=0;collapsible=1;marginBottom=0;whiteSpace=wrap;html=1;" parent="1" vertex="1">
          <mxGeometry x="930" y="1050" width="210" height="100" as="geometry" />
        </mxCell>
        <mxCell id="wuQlVSBRoirgcwjtB85D-133" value="+ time: timestamp" style="text;strokeColor=none;fillColor=none;align=left;verticalAlign=top;spacingLeft=4;spacingRight=4;overflow=hidden;rotatable=0;points=[[0,0.5],[1,0.5]];portConstraint=eastwest;whiteSpace=wrap;html=1;" parent="wuQlVSBRoirgcwjtB85D-132" vertex="1">
          <mxGeometry y="40" width="210" height="26" as="geometry" />
        </mxCell>
        <mxCell id="wuQlVSBRoirgcwjtB85D-134" value="" style="line;strokeWidth=1;fillColor=none;align=left;verticalAlign=middle;spacingTop=-1;spacingLeft=3;spacingRight=3;rotatable=0;labelPosition=right;points=[];portConstraint=eastwest;strokeColor=inherit;" parent="wuQlVSBRoirgcwjtB85D-132" vertex="1">
          <mxGeometry y="66" width="210" height="8" as="geometry" />
        </mxCell>
        <mxCell id="wuQlVSBRoirgcwjtB85D-135" value="+ calculateUpdates(): ScoreUpdate" style="text;strokeColor=none;fillColor=none;align=left;verticalAlign=top;spacingLeft=4;spacingRight=4;overflow=hidden;rotatable=0;points=[[0,0.5],[1,0.5]];portConstraint=eastwest;whiteSpace=wrap;html=1;" parent="wuQlVSBRoirgcwjtB85D-132" vertex="1">
          <mxGeometry y="74" width="210" height="26" as="geometry" />
        </mxCell>
        <mxCell id="wuQlVSBRoirgcwjtB85D-137" style="edgeStyle=orthogonalEdgeStyle;rounded=0;orthogonalLoop=1;jettySize=auto;html=1;entryX=0.5;entryY=0;entryDx=0;entryDy=0;dashed=1;dashPattern=8 8;endSize=10;" parent="1" source="wuQlVSBRoirgcwjtB85D-126" target="wuQlVSBRoirgcwjtB85D-119" edge="1">
          <mxGeometry relative="1" as="geometry">
            <Array as="points">
              <mxPoint x="1010" y="730" />
              <mxPoint x="1010" y="730" />
            </Array>
          </mxGeometry>
        </mxCell>
        <mxCell id="wuQlVSBRoirgcwjtB85D-142" value="&amp;lt;Abstract&amp;gt;&lt;div&gt;CricketMatchEvent&lt;/div&gt;" style="swimlane;fontStyle=1;align=center;verticalAlign=top;childLayout=stackLayout;horizontal=1;startSize=40;horizontalStack=0;resizeParent=1;resizeParentMax=0;resizeLast=0;collapsible=1;marginBottom=0;whiteSpace=wrap;html=1;" parent="1" vertex="1">
          <mxGeometry x="930" y="1230" width="210" height="100" as="geometry" />
        </mxCell>
        <mxCell id="wuQlVSBRoirgcwjtB85D-143" value="+" style="text;strokeColor=none;fillColor=none;align=left;verticalAlign=top;spacingLeft=4;spacingRight=4;overflow=hidden;rotatable=0;points=[[0,0.5],[1,0.5]];portConstraint=eastwest;whiteSpace=wrap;html=1;" parent="wuQlVSBRoirgcwjtB85D-142" vertex="1">
          <mxGeometry y="40" width="210" height="26" as="geometry" />
        </mxCell>
        <mxCell id="wuQlVSBRoirgcwjtB85D-144" value="" style="line;strokeWidth=1;fillColor=none;align=left;verticalAlign=middle;spacingTop=-1;spacingLeft=3;spacingRight=3;rotatable=0;labelPosition=right;points=[];portConstraint=eastwest;strokeColor=inherit;" parent="wuQlVSBRoirgcwjtB85D-142" vertex="1">
          <mxGeometry y="66" width="210" height="8" as="geometry" />
        </mxCell>
        <mxCell id="wuQlVSBRoirgcwjtB85D-145" value="+ calculateUpdates(): ScoreUpdate" style="text;strokeColor=none;fillColor=none;align=left;verticalAlign=top;spacingLeft=4;spacingRight=4;overflow=hidden;rotatable=0;points=[[0,0.5],[1,0.5]];portConstraint=eastwest;whiteSpace=wrap;html=1;" parent="wuQlVSBRoirgcwjtB85D-142" vertex="1">
          <mxGeometry y="74" width="210" height="26" as="geometry" />
        </mxCell>
        <mxCell id="wuQlVSBRoirgcwjtB85D-146" value="&amp;lt;Abstract&amp;gt;&lt;div&gt;FootballMatchEvent&lt;/div&gt;" style="swimlane;fontStyle=1;align=center;verticalAlign=top;childLayout=stackLayout;horizontal=1;startSize=40;horizontalStack=0;resizeParent=1;resizeParentMax=0;resizeLast=0;collapsible=1;marginBottom=0;whiteSpace=wrap;html=1;" parent="1" vertex="1">
          <mxGeometry x="630" y="1050" width="210" height="100" as="geometry" />
        </mxCell>
        <mxCell id="wuQlVSBRoirgcwjtB85D-147" value="+" style="text;strokeColor=none;fillColor=none;align=left;verticalAlign=top;spacingLeft=4;spacingRight=4;overflow=hidden;rotatable=0;points=[[0,0.5],[1,0.5]];portConstraint=eastwest;whiteSpace=wrap;html=1;" parent="wuQlVSBRoirgcwjtB85D-146" vertex="1">
          <mxGeometry y="40" width="210" height="26" as="geometry" />
        </mxCell>
        <mxCell id="wuQlVSBRoirgcwjtB85D-148" value="" style="line;strokeWidth=1;fillColor=none;align=left;verticalAlign=middle;spacingTop=-1;spacingLeft=3;spacingRight=3;rotatable=0;labelPosition=right;points=[];portConstraint=eastwest;strokeColor=inherit;" parent="wuQlVSBRoirgcwjtB85D-146" vertex="1">
          <mxGeometry y="66" width="210" height="8" as="geometry" />
        </mxCell>
        <mxCell id="wuQlVSBRoirgcwjtB85D-149" value="+ calculateUpdates(): ScoreUpdate" style="text;strokeColor=none;fillColor=none;align=left;verticalAlign=top;spacingLeft=4;spacingRight=4;overflow=hidden;rotatable=0;points=[[0,0.5],[1,0.5]];portConstraint=eastwest;whiteSpace=wrap;html=1;" parent="wuQlVSBRoirgcwjtB85D-146" vertex="1">
          <mxGeometry y="74" width="210" height="26" as="geometry" />
        </mxCell>
        <mxCell id="wuQlVSBRoirgcwjtB85D-150" value="GoalEvent" style="swimlane;fontStyle=1;align=center;verticalAlign=top;childLayout=stackLayout;horizontal=1;startSize=26;horizontalStack=0;resizeParent=1;resizeParentMax=0;resizeLast=0;collapsible=1;marginBottom=0;whiteSpace=wrap;html=1;" parent="1" vertex="1">
          <mxGeometry x="370" y="1053" width="160" height="86" as="geometry" />
        </mxCell>
        <mxCell id="wuQlVSBRoirgcwjtB85D-151" value="+ scorer: SquadMember" style="text;strokeColor=none;fillColor=none;align=left;verticalAlign=top;spacingLeft=4;spacingRight=4;overflow=hidden;rotatable=0;points=[[0,0.5],[1,0.5]];portConstraint=eastwest;whiteSpace=wrap;html=1;" parent="wuQlVSBRoirgcwjtB85D-150" vertex="1">
          <mxGeometry y="26" width="160" height="26" as="geometry" />
        </mxCell>
        <mxCell id="wuQlVSBRoirgcwjtB85D-152" value="" style="line;strokeWidth=1;fillColor=none;align=left;verticalAlign=middle;spacingTop=-1;spacingLeft=3;spacingRight=3;rotatable=0;labelPosition=right;points=[];portConstraint=eastwest;strokeColor=inherit;" parent="wuQlVSBRoirgcwjtB85D-150" vertex="1">
          <mxGeometry y="52" width="160" height="8" as="geometry" />
        </mxCell>
        <mxCell id="wuQlVSBRoirgcwjtB85D-153" value="+" style="text;strokeColor=none;fillColor=none;align=left;verticalAlign=top;spacingLeft=4;spacingRight=4;overflow=hidden;rotatable=0;points=[[0,0.5],[1,0.5]];portConstraint=eastwest;whiteSpace=wrap;html=1;" parent="wuQlVSBRoirgcwjtB85D-150" vertex="1">
          <mxGeometry y="60" width="160" height="26" as="geometry" />
        </mxCell>
        <mxCell id="wuQlVSBRoirgcwjtB85D-158" value="WicketEvent" style="swimlane;fontStyle=1;align=center;verticalAlign=top;childLayout=stackLayout;horizontal=1;startSize=26;horizontalStack=0;resizeParent=1;resizeParentMax=0;resizeLast=0;collapsible=1;marginBottom=0;whiteSpace=wrap;html=1;" parent="1" vertex="1">
          <mxGeometry x="655" y="1235" width="160" height="104" as="geometry" />
        </mxCell>
        <mxCell id="wuQlVSBRoirgcwjtB85D-159" value="+ bowler: SquadMember&lt;div&gt;+ batter: SquadMember&lt;/div&gt;" style="text;strokeColor=none;fillColor=none;align=left;verticalAlign=top;spacingLeft=4;spacingRight=4;overflow=hidden;rotatable=0;points=[[0,0.5],[1,0.5]];portConstraint=eastwest;whiteSpace=wrap;html=1;" parent="wuQlVSBRoirgcwjtB85D-158" vertex="1">
          <mxGeometry y="26" width="160" height="44" as="geometry" />
        </mxCell>
        <mxCell id="wuQlVSBRoirgcwjtB85D-160" value="" style="line;strokeWidth=1;fillColor=none;align=left;verticalAlign=middle;spacingTop=-1;spacingLeft=3;spacingRight=3;rotatable=0;labelPosition=right;points=[];portConstraint=eastwest;strokeColor=inherit;" parent="wuQlVSBRoirgcwjtB85D-158" vertex="1">
          <mxGeometry y="70" width="160" height="8" as="geometry" />
        </mxCell>
        <mxCell id="wuQlVSBRoirgcwjtB85D-161" value="+" style="text;strokeColor=none;fillColor=none;align=left;verticalAlign=top;spacingLeft=4;spacingRight=4;overflow=hidden;rotatable=0;points=[[0,0.5],[1,0.5]];portConstraint=eastwest;whiteSpace=wrap;html=1;" parent="wuQlVSBRoirgcwjtB85D-158" vertex="1">
          <mxGeometry y="78" width="160" height="26" as="geometry" />
        </mxCell>
        <mxCell id="wuQlVSBRoirgcwjtB85D-162" style="edgeStyle=orthogonalEdgeStyle;rounded=0;orthogonalLoop=1;jettySize=auto;html=1;entryX=0;entryY=0.5;entryDx=0;entryDy=0;endSize=10;" parent="1" source="wuQlVSBRoirgcwjtB85D-147" target="wuQlVSBRoirgcwjtB85D-133" edge="1">
          <mxGeometry relative="1" as="geometry" />
        </mxCell>
        <mxCell id="wuQlVSBRoirgcwjtB85D-163" style="edgeStyle=orthogonalEdgeStyle;rounded=0;orthogonalLoop=1;jettySize=auto;html=1;exitX=0.5;exitY=0;exitDx=0;exitDy=0;entryX=0.495;entryY=0.971;entryDx=0;entryDy=0;entryPerimeter=0;endSize=10;" parent="1" source="wuQlVSBRoirgcwjtB85D-142" target="wuQlVSBRoirgcwjtB85D-135" edge="1">
          <mxGeometry relative="1" as="geometry" />
        </mxCell>
        <mxCell id="wuQlVSBRoirgcwjtB85D-164" style="edgeStyle=orthogonalEdgeStyle;rounded=0;orthogonalLoop=1;jettySize=auto;html=1;entryX=0.001;entryY=0.081;entryDx=0;entryDy=0;entryPerimeter=0;endSize=10;" parent="1" source="wuQlVSBRoirgcwjtB85D-151" target="wuQlVSBRoirgcwjtB85D-147" edge="1">
          <mxGeometry relative="1" as="geometry" />
        </mxCell>
        <mxCell id="wuQlVSBRoirgcwjtB85D-165" style="edgeStyle=orthogonalEdgeStyle;rounded=0;orthogonalLoop=1;jettySize=auto;html=1;entryX=0;entryY=0.5;entryDx=0;entryDy=0;endSize=10;" parent="1" source="wuQlVSBRoirgcwjtB85D-159" target="wuQlVSBRoirgcwjtB85D-143" edge="1">
          <mxGeometry relative="1" as="geometry" />
        </mxCell>
        <mxCell id="wuQlVSBRoirgcwjtB85D-166" style="edgeStyle=orthogonalEdgeStyle;rounded=0;orthogonalLoop=1;jettySize=auto;html=1;entryX=0.601;entryY=0.962;entryDx=0;entryDy=0;entryPerimeter=0;endSize=10;endArrow=block;endFill=0;dashed=1;dashPattern=8 8;" parent="1" source="wuQlVSBRoirgcwjtB85D-132" target="wuQlVSBRoirgcwjtB85D-126" edge="1">
          <mxGeometry relative="1" as="geometry">
            <Array as="points">
              <mxPoint x="1140" y="740" />
              <mxPoint x="1050" y="740" />
            </Array>
          </mxGeometry>
        </mxCell>
        <mxCell id="wuQlVSBRoirgcwjtB85D-167" value="Implements" style="edgeLabel;html=1;align=center;verticalAlign=middle;resizable=0;points=[];" parent="wuQlVSBRoirgcwjtB85D-166" vertex="1" connectable="0">
          <mxGeometry x="-0.2531" y="-3" relative="1" as="geometry">
            <mxPoint x="-3" y="-84" as="offset" />
          </mxGeometry>
        </mxCell>
        <mxCell id="wuQlVSBRoirgcwjtB85D-168" style="edgeStyle=orthogonalEdgeStyle;rounded=0;orthogonalLoop=1;jettySize=auto;html=1;entryX=0.864;entryY=0.993;entryDx=0;entryDy=0;entryPerimeter=0;endArrow=diamondThin;endFill=1;endSize=12;" parent="1" source="wuQlVSBRoirgcwjtB85D-132" target="wuQlVSBRoirgcwjtB85D-74" edge="1">
          <mxGeometry relative="1" as="geometry">
            <Array as="points">
              <mxPoint x="870" y="1080" />
              <mxPoint x="870" y="670" />
              <mxPoint x="817" y="670" />
            </Array>
          </mxGeometry>
        </mxCell>
        <mxCell id="wuQlVSBRoirgcwjtB85D-169" value="&amp;lt;Abstract&amp;gt;&lt;div&gt;Notification&lt;/div&gt;" style="swimlane;fontStyle=1;align=center;verticalAlign=top;childLayout=stackLayout;horizontal=1;startSize=35;horizontalStack=0;resizeParent=1;resizeParentMax=0;resizeLast=0;collapsible=1;marginBottom=0;whiteSpace=wrap;html=1;" parent="1" vertex="1">
          <mxGeometry x="45" y="1105" width="160" height="114" as="geometry" />
        </mxCell>
        <mxCell id="wuQlVSBRoirgcwjtB85D-170" value="+ content: string&lt;div&gt;+ user: User&lt;/div&gt;" style="text;strokeColor=none;fillColor=none;align=left;verticalAlign=top;spacingLeft=4;spacingRight=4;overflow=hidden;rotatable=0;points=[[0,0.5],[1,0.5]];portConstraint=eastwest;whiteSpace=wrap;html=1;" parent="wuQlVSBRoirgcwjtB85D-169" vertex="1">
          <mxGeometry y="35" width="160" height="45" as="geometry" />
        </mxCell>
        <mxCell id="wuQlVSBRoirgcwjtB85D-171" value="" style="line;strokeWidth=1;fillColor=none;align=left;verticalAlign=middle;spacingTop=-1;spacingLeft=3;spacingRight=3;rotatable=0;labelPosition=right;points=[];portConstraint=eastwest;strokeColor=inherit;" parent="wuQlVSBRoirgcwjtB85D-169" vertex="1">
          <mxGeometry y="80" width="160" height="8" as="geometry" />
        </mxCell>
        <mxCell id="wuQlVSBRoirgcwjtB85D-172" value="+ send(): void" style="text;strokeColor=none;fillColor=none;align=left;verticalAlign=top;spacingLeft=4;spacingRight=4;overflow=hidden;rotatable=0;points=[[0,0.5],[1,0.5]];portConstraint=eastwest;whiteSpace=wrap;html=1;" parent="wuQlVSBRoirgcwjtB85D-169" vertex="1">
          <mxGeometry y="88" width="160" height="26" as="geometry" />
        </mxCell>
        <mxCell id="wuQlVSBRoirgcwjtB85D-173" value="PushNotification" style="swimlane;fontStyle=1;align=center;verticalAlign=top;childLayout=stackLayout;horizontal=1;startSize=26;horizontalStack=0;resizeParent=1;resizeParentMax=0;resizeLast=0;collapsible=1;marginBottom=0;whiteSpace=wrap;html=1;" parent="1" vertex="1">
          <mxGeometry x="45" y="1281" width="160" height="86" as="geometry" />
        </mxCell>
        <mxCell id="wuQlVSBRoirgcwjtB85D-174" value="+" style="text;strokeColor=none;fillColor=none;align=left;verticalAlign=top;spacingLeft=4;spacingRight=4;overflow=hidden;rotatable=0;points=[[0,0.5],[1,0.5]];portConstraint=eastwest;whiteSpace=wrap;html=1;" parent="wuQlVSBRoirgcwjtB85D-173" vertex="1">
          <mxGeometry y="26" width="160" height="26" as="geometry" />
        </mxCell>
        <mxCell id="wuQlVSBRoirgcwjtB85D-175" value="" style="line;strokeWidth=1;fillColor=none;align=left;verticalAlign=middle;spacingTop=-1;spacingLeft=3;spacingRight=3;rotatable=0;labelPosition=right;points=[];portConstraint=eastwest;strokeColor=inherit;" parent="wuQlVSBRoirgcwjtB85D-173" vertex="1">
          <mxGeometry y="52" width="160" height="8" as="geometry" />
        </mxCell>
        <mxCell id="wuQlVSBRoirgcwjtB85D-176" value="+ send(): void" style="text;strokeColor=none;fillColor=none;align=left;verticalAlign=top;spacingLeft=4;spacingRight=4;overflow=hidden;rotatable=0;points=[[0,0.5],[1,0.5]];portConstraint=eastwest;whiteSpace=wrap;html=1;" parent="wuQlVSBRoirgcwjtB85D-173" vertex="1">
          <mxGeometry y="60" width="160" height="26" as="geometry" />
        </mxCell>
        <mxCell id="wuQlVSBRoirgcwjtB85D-177" value="SMS" style="swimlane;fontStyle=1;align=center;verticalAlign=top;childLayout=stackLayout;horizontal=1;startSize=26;horizontalStack=0;resizeParent=1;resizeParentMax=0;resizeLast=0;collapsible=1;marginBottom=0;whiteSpace=wrap;html=1;" parent="1" vertex="1">
          <mxGeometry x="40" y="1420" width="160" height="86" as="geometry" />
        </mxCell>
        <mxCell id="wuQlVSBRoirgcwjtB85D-178" value="+" style="text;strokeColor=none;fillColor=none;align=left;verticalAlign=top;spacingLeft=4;spacingRight=4;overflow=hidden;rotatable=0;points=[[0,0.5],[1,0.5]];portConstraint=eastwest;whiteSpace=wrap;html=1;" parent="wuQlVSBRoirgcwjtB85D-177" vertex="1">
          <mxGeometry y="26" width="160" height="26" as="geometry" />
        </mxCell>
        <mxCell id="wuQlVSBRoirgcwjtB85D-179" value="" style="line;strokeWidth=1;fillColor=none;align=left;verticalAlign=middle;spacingTop=-1;spacingLeft=3;spacingRight=3;rotatable=0;labelPosition=right;points=[];portConstraint=eastwest;strokeColor=inherit;" parent="wuQlVSBRoirgcwjtB85D-177" vertex="1">
          <mxGeometry y="52" width="160" height="8" as="geometry" />
        </mxCell>
        <mxCell id="wuQlVSBRoirgcwjtB85D-180" value="+ send(): void" style="text;strokeColor=none;fillColor=none;align=left;verticalAlign=top;spacingLeft=4;spacingRight=4;overflow=hidden;rotatable=0;points=[[0,0.5],[1,0.5]];portConstraint=eastwest;whiteSpace=wrap;html=1;" parent="wuQlVSBRoirgcwjtB85D-177" vertex="1">
          <mxGeometry y="60" width="160" height="26" as="geometry" />
        </mxCell>
        <mxCell id="wuQlVSBRoirgcwjtB85D-181" value="Email" style="swimlane;fontStyle=1;align=center;verticalAlign=top;childLayout=stackLayout;horizontal=1;startSize=26;horizontalStack=0;resizeParent=1;resizeParentMax=0;resizeLast=0;collapsible=1;marginBottom=0;whiteSpace=wrap;html=1;" parent="1" vertex="1">
          <mxGeometry x="45" y="1570" width="160" height="86" as="geometry" />
        </mxCell>
        <mxCell id="wuQlVSBRoirgcwjtB85D-182" value="+" style="text;strokeColor=none;fillColor=none;align=left;verticalAlign=top;spacingLeft=4;spacingRight=4;overflow=hidden;rotatable=0;points=[[0,0.5],[1,0.5]];portConstraint=eastwest;whiteSpace=wrap;html=1;" parent="wuQlVSBRoirgcwjtB85D-181" vertex="1">
          <mxGeometry y="26" width="160" height="26" as="geometry" />
        </mxCell>
        <mxCell id="wuQlVSBRoirgcwjtB85D-183" value="" style="line;strokeWidth=1;fillColor=none;align=left;verticalAlign=middle;spacingTop=-1;spacingLeft=3;spacingRight=3;rotatable=0;labelPosition=right;points=[];portConstraint=eastwest;strokeColor=inherit;" parent="wuQlVSBRoirgcwjtB85D-181" vertex="1">
          <mxGeometry y="52" width="160" height="8" as="geometry" />
        </mxCell>
        <mxCell id="wuQlVSBRoirgcwjtB85D-184" value="+ send(): void" style="text;strokeColor=none;fillColor=none;align=left;verticalAlign=top;spacingLeft=4;spacingRight=4;overflow=hidden;rotatable=0;points=[[0,0.5],[1,0.5]];portConstraint=eastwest;whiteSpace=wrap;html=1;" parent="wuQlVSBRoirgcwjtB85D-181" vertex="1">
          <mxGeometry y="60" width="160" height="26" as="geometry" />
        </mxCell>
        <mxCell id="wuQlVSBRoirgcwjtB85D-185" style="edgeStyle=orthogonalEdgeStyle;rounded=0;orthogonalLoop=1;jettySize=auto;html=1;entryX=1;entryY=0.5;entryDx=0;entryDy=0;endSize=10;endArrow=block;endFill=0;" parent="1" source="wuQlVSBRoirgcwjtB85D-174" target="wuQlVSBRoirgcwjtB85D-170" edge="1">
          <mxGeometry relative="1" as="geometry">
            <Array as="points">
              <mxPoint x="225" y="1320" />
              <mxPoint x="225" y="1162" />
            </Array>
          </mxGeometry>
        </mxCell>
        <mxCell id="wuQlVSBRoirgcwjtB85D-187" style="edgeStyle=orthogonalEdgeStyle;rounded=0;orthogonalLoop=1;jettySize=auto;html=1;entryX=1;entryY=0.5;entryDx=0;entryDy=0;endArrow=block;endFill=0;endSize=10;" parent="1" source="wuQlVSBRoirgcwjtB85D-178" target="wuQlVSBRoirgcwjtB85D-170" edge="1">
          <mxGeometry relative="1" as="geometry" />
        </mxCell>
        <mxCell id="wuQlVSBRoirgcwjtB85D-188" style="edgeStyle=orthogonalEdgeStyle;rounded=0;orthogonalLoop=1;jettySize=auto;html=1;entryX=1;entryY=0.5;entryDx=0;entryDy=0;endSize=10;endArrow=block;endFill=0;" parent="1" source="wuQlVSBRoirgcwjtB85D-182" target="wuQlVSBRoirgcwjtB85D-170" edge="1">
          <mxGeometry relative="1" as="geometry">
            <Array as="points">
              <mxPoint x="225" y="1609" />
              <mxPoint x="225" y="1162" />
            </Array>
          </mxGeometry>
        </mxCell>
        <mxCell id="wuQlVSBRoirgcwjtB85D-190" style="edgeStyle=orthogonalEdgeStyle;rounded=0;orthogonalLoop=1;jettySize=auto;html=1;entryX=0.001;entryY=0.836;entryDx=0;entryDy=0;entryPerimeter=0;endSize=10;" parent="1" source="wuQlVSBRoirgcwjtB85D-170" target="wuQlVSBRoirgcwjtB85D-10" edge="1">
          <mxGeometry relative="1" as="geometry">
            <Array as="points">
              <mxPoint x="10" y="1162" />
              <mxPoint x="10" y="291" />
            </Array>
          </mxGeometry>
        </mxCell>
        <mxCell id="wuQlVSBRoirgcwjtB85D-191" value="&amp;lt;Abstract&amp;gt;&lt;div&gt;MoneyTransaction&lt;/div&gt;" style="swimlane;fontStyle=1;align=center;verticalAlign=top;childLayout=stackLayout;horizontal=1;startSize=34;horizontalStack=0;resizeParent=1;resizeParentMax=0;resizeLast=0;collapsible=1;marginBottom=0;whiteSpace=wrap;html=1;" parent="1" vertex="1">
          <mxGeometry x="300" y="1206" width="160" height="124" as="geometry" />
        </mxCell>
        <mxCell id="wuQlVSBRoirgcwjtB85D-192" value="+ amount: double&lt;div&gt;+ time: timestamp&lt;/div&gt;&lt;div&gt;+ user: User&lt;/div&gt;" style="text;strokeColor=none;fillColor=none;align=left;verticalAlign=top;spacingLeft=4;spacingRight=4;overflow=hidden;rotatable=0;points=[[0,0.5],[1,0.5]];portConstraint=eastwest;whiteSpace=wrap;html=1;" parent="wuQlVSBRoirgcwjtB85D-191" vertex="1">
          <mxGeometry y="34" width="160" height="56" as="geometry" />
        </mxCell>
        <mxCell id="wuQlVSBRoirgcwjtB85D-193" value="" style="line;strokeWidth=1;fillColor=none;align=left;verticalAlign=middle;spacingTop=-1;spacingLeft=3;spacingRight=3;rotatable=0;labelPosition=right;points=[];portConstraint=eastwest;strokeColor=inherit;" parent="wuQlVSBRoirgcwjtB85D-191" vertex="1">
          <mxGeometry y="90" width="160" height="8" as="geometry" />
        </mxCell>
        <mxCell id="wuQlVSBRoirgcwjtB85D-194" value="+" style="text;strokeColor=none;fillColor=none;align=left;verticalAlign=top;spacingLeft=4;spacingRight=4;overflow=hidden;rotatable=0;points=[[0,0.5],[1,0.5]];portConstraint=eastwest;whiteSpace=wrap;html=1;" parent="wuQlVSBRoirgcwjtB85D-191" vertex="1">
          <mxGeometry y="98" width="160" height="26" as="geometry" />
        </mxCell>
        <mxCell id="wuQlVSBRoirgcwjtB85D-195" value="UPI" style="swimlane;fontStyle=1;align=center;verticalAlign=top;childLayout=stackLayout;horizontal=1;startSize=26;horizontalStack=0;resizeParent=1;resizeParentMax=0;resizeLast=0;collapsible=1;marginBottom=0;whiteSpace=wrap;html=1;" parent="1" vertex="1">
          <mxGeometry x="300" y="1400" width="160" height="88" as="geometry" />
        </mxCell>
        <mxCell id="wuQlVSBRoirgcwjtB85D-196" value="+" style="text;strokeColor=none;fillColor=none;align=left;verticalAlign=top;spacingLeft=4;spacingRight=4;overflow=hidden;rotatable=0;points=[[0,0.5],[1,0.5]];portConstraint=eastwest;whiteSpace=wrap;html=1;" parent="wuQlVSBRoirgcwjtB85D-195" vertex="1">
          <mxGeometry y="26" width="160" height="26" as="geometry" />
        </mxCell>
        <mxCell id="wuQlVSBRoirgcwjtB85D-197" value="" style="line;strokeWidth=1;fillColor=none;align=left;verticalAlign=middle;spacingTop=-1;spacingLeft=3;spacingRight=3;rotatable=0;labelPosition=right;points=[];portConstraint=eastwest;strokeColor=inherit;" parent="wuQlVSBRoirgcwjtB85D-195" vertex="1">
          <mxGeometry y="52" width="160" height="10" as="geometry" />
        </mxCell>
        <mxCell id="wuQlVSBRoirgcwjtB85D-198" value="+" style="text;strokeColor=none;fillColor=none;align=left;verticalAlign=top;spacingLeft=4;spacingRight=4;overflow=hidden;rotatable=0;points=[[0,0.5],[1,0.5]];portConstraint=eastwest;whiteSpace=wrap;html=1;" parent="wuQlVSBRoirgcwjtB85D-195" vertex="1">
          <mxGeometry y="62" width="160" height="26" as="geometry" />
        </mxCell>
        <mxCell id="wuQlVSBRoirgcwjtB85D-199" value="NetBanking" style="swimlane;fontStyle=1;align=center;verticalAlign=top;childLayout=stackLayout;horizontal=1;startSize=26;horizontalStack=0;resizeParent=1;resizeParentMax=0;resizeLast=0;collapsible=1;marginBottom=0;whiteSpace=wrap;html=1;" parent="1" vertex="1">
          <mxGeometry x="300" y="1580" width="160" height="86" as="geometry" />
        </mxCell>
        <mxCell id="wuQlVSBRoirgcwjtB85D-200" value="+" style="text;strokeColor=none;fillColor=none;align=left;verticalAlign=top;spacingLeft=4;spacingRight=4;overflow=hidden;rotatable=0;points=[[0,0.5],[1,0.5]];portConstraint=eastwest;whiteSpace=wrap;html=1;" parent="wuQlVSBRoirgcwjtB85D-199" vertex="1">
          <mxGeometry y="26" width="160" height="26" as="geometry" />
        </mxCell>
        <mxCell id="wuQlVSBRoirgcwjtB85D-201" value="" style="line;strokeWidth=1;fillColor=none;align=left;verticalAlign=middle;spacingTop=-1;spacingLeft=3;spacingRight=3;rotatable=0;labelPosition=right;points=[];portConstraint=eastwest;strokeColor=inherit;" parent="wuQlVSBRoirgcwjtB85D-199" vertex="1">
          <mxGeometry y="52" width="160" height="8" as="geometry" />
        </mxCell>
        <mxCell id="wuQlVSBRoirgcwjtB85D-202" value="+" style="text;strokeColor=none;fillColor=none;align=left;verticalAlign=top;spacingLeft=4;spacingRight=4;overflow=hidden;rotatable=0;points=[[0,0.5],[1,0.5]];portConstraint=eastwest;whiteSpace=wrap;html=1;" parent="wuQlVSBRoirgcwjtB85D-199" vertex="1">
          <mxGeometry y="60" width="160" height="26" as="geometry" />
        </mxCell>
        <mxCell id="wuQlVSBRoirgcwjtB85D-203" value="CreditCard" style="swimlane;fontStyle=1;align=center;verticalAlign=top;childLayout=stackLayout;horizontal=1;startSize=26;horizontalStack=0;resizeParent=1;resizeParentMax=0;resizeLast=0;collapsible=1;marginBottom=0;whiteSpace=wrap;html=1;" parent="1" vertex="1">
          <mxGeometry x="610" y="1590" width="160" height="86" as="geometry" />
        </mxCell>
        <mxCell id="wuQlVSBRoirgcwjtB85D-204" value="+" style="text;strokeColor=none;fillColor=none;align=left;verticalAlign=top;spacingLeft=4;spacingRight=4;overflow=hidden;rotatable=0;points=[[0,0.5],[1,0.5]];portConstraint=eastwest;whiteSpace=wrap;html=1;" parent="wuQlVSBRoirgcwjtB85D-203" vertex="1">
          <mxGeometry y="26" width="160" height="26" as="geometry" />
        </mxCell>
        <mxCell id="wuQlVSBRoirgcwjtB85D-205" value="" style="line;strokeWidth=1;fillColor=none;align=left;verticalAlign=middle;spacingTop=-1;spacingLeft=3;spacingRight=3;rotatable=0;labelPosition=right;points=[];portConstraint=eastwest;strokeColor=inherit;" parent="wuQlVSBRoirgcwjtB85D-203" vertex="1">
          <mxGeometry y="52" width="160" height="8" as="geometry" />
        </mxCell>
        <mxCell id="wuQlVSBRoirgcwjtB85D-206" value="+" style="text;strokeColor=none;fillColor=none;align=left;verticalAlign=top;spacingLeft=4;spacingRight=4;overflow=hidden;rotatable=0;points=[[0,0.5],[1,0.5]];portConstraint=eastwest;whiteSpace=wrap;html=1;" parent="wuQlVSBRoirgcwjtB85D-203" vertex="1">
          <mxGeometry y="60" width="160" height="26" as="geometry" />
        </mxCell>
        <mxCell id="wuQlVSBRoirgcwjtB85D-207" style="edgeStyle=orthogonalEdgeStyle;rounded=0;orthogonalLoop=1;jettySize=auto;html=1;entryX=1;entryY=0.5;entryDx=0;entryDy=0;endSize=10;endArrow=block;endFill=0;" parent="1" source="wuQlVSBRoirgcwjtB85D-196" target="wuQlVSBRoirgcwjtB85D-192" edge="1">
          <mxGeometry relative="1" as="geometry">
            <Array as="points">
              <mxPoint x="500" y="1439" />
              <mxPoint x="500" y="1268" />
            </Array>
          </mxGeometry>
        </mxCell>
        <mxCell id="wuQlVSBRoirgcwjtB85D-208" style="edgeStyle=orthogonalEdgeStyle;rounded=0;orthogonalLoop=1;jettySize=auto;html=1;endSize=10;endArrow=block;endFill=0;exitX=0.5;exitY=0;exitDx=0;exitDy=0;" parent="1" source="wuQlVSBRoirgcwjtB85D-199" target="wuQlVSBRoirgcwjtB85D-192" edge="1">
          <mxGeometry relative="1" as="geometry">
            <Array as="points">
              <mxPoint x="380" y="1530" />
              <mxPoint x="500" y="1530" />
              <mxPoint x="500" y="1268" />
            </Array>
          </mxGeometry>
        </mxCell>
        <mxCell id="wuQlVSBRoirgcwjtB85D-209" style="edgeStyle=orthogonalEdgeStyle;rounded=0;orthogonalLoop=1;jettySize=auto;html=1;endSize=10;endArrow=block;endFill=0;" parent="1" source="wuQlVSBRoirgcwjtB85D-204" target="wuQlVSBRoirgcwjtB85D-192" edge="1">
          <mxGeometry relative="1" as="geometry" />
        </mxCell>
        <mxCell id="wuQlVSBRoirgcwjtB85D-210" style="edgeStyle=orthogonalEdgeStyle;rounded=0;orthogonalLoop=1;jettySize=auto;html=1;entryX=1.007;entryY=0.755;entryDx=0;entryDy=0;entryPerimeter=0;endSize=10;jumpStyle=arc;" parent="1" source="wuQlVSBRoirgcwjtB85D-191" target="wuQlVSBRoirgcwjtB85D-12" edge="1">
          <mxGeometry relative="1" as="geometry">
            <Array as="points">
              <mxPoint x="330" y="340" />
            </Array>
          </mxGeometry>
        </mxCell>
        <mxCell id="wuQlVSBRoirgcwjtB85D-211" value="DepositMoney" style="swimlane;fontStyle=1;align=center;verticalAlign=top;childLayout=stackLayout;horizontal=1;startSize=26;horizontalStack=0;resizeParent=1;resizeParentMax=0;resizeLast=0;collapsible=1;marginBottom=0;whiteSpace=wrap;html=1;" parent="1" vertex="1">
          <mxGeometry x="630" y="1367" width="190" height="86" as="geometry" />
        </mxCell>
        <mxCell id="wuQlVSBRoirgcwjtB85D-212" value="+ transaction: MoneyTransaction" style="text;strokeColor=none;fillColor=none;align=left;verticalAlign=top;spacingLeft=4;spacingRight=4;overflow=hidden;rotatable=0;points=[[0,0.5],[1,0.5]];portConstraint=eastwest;whiteSpace=wrap;html=1;" parent="wuQlVSBRoirgcwjtB85D-211" vertex="1">
          <mxGeometry y="26" width="190" height="26" as="geometry" />
        </mxCell>
        <mxCell id="wuQlVSBRoirgcwjtB85D-213" value="" style="line;strokeWidth=1;fillColor=none;align=left;verticalAlign=middle;spacingTop=-1;spacingLeft=3;spacingRight=3;rotatable=0;labelPosition=right;points=[];portConstraint=eastwest;strokeColor=inherit;" parent="wuQlVSBRoirgcwjtB85D-211" vertex="1">
          <mxGeometry y="52" width="190" height="8" as="geometry" />
        </mxCell>
        <mxCell id="wuQlVSBRoirgcwjtB85D-214" value="+&amp;nbsp;" style="text;strokeColor=none;fillColor=none;align=left;verticalAlign=top;spacingLeft=4;spacingRight=4;overflow=hidden;rotatable=0;points=[[0,0.5],[1,0.5]];portConstraint=eastwest;whiteSpace=wrap;html=1;" parent="wuQlVSBRoirgcwjtB85D-211" vertex="1">
          <mxGeometry y="60" width="190" height="26" as="geometry" />
        </mxCell>
        <mxCell id="wuQlVSBRoirgcwjtB85D-215" value="WithdrawMoney" style="swimlane;fontStyle=1;align=center;verticalAlign=top;childLayout=stackLayout;horizontal=1;startSize=26;horizontalStack=0;resizeParent=1;resizeParentMax=0;resizeLast=0;collapsible=1;marginBottom=0;whiteSpace=wrap;html=1;" parent="1" vertex="1">
          <mxGeometry x="627" y="1480" width="190" height="86" as="geometry" />
        </mxCell>
        <mxCell id="wuQlVSBRoirgcwjtB85D-216" value="+ transaction: MoneyTransaction" style="text;strokeColor=none;fillColor=none;align=left;verticalAlign=top;spacingLeft=4;spacingRight=4;overflow=hidden;rotatable=0;points=[[0,0.5],[1,0.5]];portConstraint=eastwest;whiteSpace=wrap;html=1;" parent="wuQlVSBRoirgcwjtB85D-215" vertex="1">
          <mxGeometry y="26" width="190" height="26" as="geometry" />
        </mxCell>
        <mxCell id="wuQlVSBRoirgcwjtB85D-217" value="" style="line;strokeWidth=1;fillColor=none;align=left;verticalAlign=middle;spacingTop=-1;spacingLeft=3;spacingRight=3;rotatable=0;labelPosition=right;points=[];portConstraint=eastwest;strokeColor=inherit;" parent="wuQlVSBRoirgcwjtB85D-215" vertex="1">
          <mxGeometry y="52" width="190" height="8" as="geometry" />
        </mxCell>
        <mxCell id="wuQlVSBRoirgcwjtB85D-218" value="+&amp;nbsp;" style="text;strokeColor=none;fillColor=none;align=left;verticalAlign=top;spacingLeft=4;spacingRight=4;overflow=hidden;rotatable=0;points=[[0,0.5],[1,0.5]];portConstraint=eastwest;whiteSpace=wrap;html=1;" parent="wuQlVSBRoirgcwjtB85D-215" vertex="1">
          <mxGeometry y="60" width="190" height="26" as="geometry" />
        </mxCell>
        <mxCell id="wuQlVSBRoirgcwjtB85D-219" style="edgeStyle=orthogonalEdgeStyle;rounded=0;orthogonalLoop=1;jettySize=auto;html=1;entryX=0;entryY=0.5;entryDx=0;entryDy=0;endSize=12;endArrow=diamondThin;endFill=0;" parent="1" edge="1">
          <mxGeometry relative="1" as="geometry">
            <Array as="points">
              <mxPoint x="545" y="1240" />
              <mxPoint x="545" y="1519" />
            </Array>
            <mxPoint x="462" y="1240" as="sourcePoint" />
            <mxPoint x="627" y="1519.0000000000005" as="targetPoint" />
          </mxGeometry>
        </mxCell>
        <mxCell id="wuQlVSBRoirgcwjtB85D-220" style="edgeStyle=orthogonalEdgeStyle;rounded=0;orthogonalLoop=1;jettySize=auto;html=1;entryX=0;entryY=0.5;entryDx=0;entryDy=0;endArrow=diamondThin;endFill=0;endSize=12;" parent="1" source="wuQlVSBRoirgcwjtB85D-192" target="wuQlVSBRoirgcwjtB85D-212" edge="1">
          <mxGeometry relative="1" as="geometry">
            <Array as="points">
              <mxPoint x="545" y="1240" />
              <mxPoint x="545" y="1406" />
            </Array>
          </mxGeometry>
        </mxCell>
        <mxCell id="lLXHPsCMNP7Is2h4a9H_-9" style="edgeStyle=orthogonalEdgeStyle;rounded=0;orthogonalLoop=1;jettySize=auto;html=1;exitX=0.5;exitY=1;exitDx=0;exitDy=0;entryX=0.5;entryY=0;entryDx=0;entryDy=0;endSize=10;endArrow=block;endFill=0;dashed=1;dashPattern=8 8;" edge="1" parent="1" source="lLXHPsCMNP7Is2h4a9H_-1" target="lLXHPsCMNP7Is2h4a9H_-5">
          <mxGeometry relative="1" as="geometry" />
        </mxCell>
        <mxCell id="lLXHPsCMNP7Is2h4a9H_-10" value="Implements" style="edgeLabel;html=1;align=center;verticalAlign=middle;resizable=0;points=[];" vertex="1" connectable="0" parent="lLXHPsCMNP7Is2h4a9H_-9">
          <mxGeometry x="-0.1547" relative="1" as="geometry">
            <mxPoint as="offset" />
          </mxGeometry>
        </mxCell>
        <mxCell id="lLXHPsCMNP7Is2h4a9H_-1" value="Dream11" style="swimlane;fontStyle=1;align=center;verticalAlign=top;childLayout=stackLayout;horizontal=1;startSize=26;horizontalStack=0;resizeParent=1;resizeParentMax=0;resizeLast=0;collapsible=1;marginBottom=0;whiteSpace=wrap;html=1;" vertex="1" parent="1">
          <mxGeometry x="930" y="1382" width="200" height="100" as="geometry" />
        </mxCell>
        <mxCell id="lLXHPsCMNP7Is2h4a9H_-2" value="+ matches: List&amp;lt;Match&amp;gt;" style="text;strokeColor=none;fillColor=none;align=left;verticalAlign=top;spacingLeft=4;spacingRight=4;overflow=hidden;rotatable=0;points=[[0,0.5],[1,0.5]];portConstraint=eastwest;whiteSpace=wrap;html=1;" vertex="1" parent="lLXHPsCMNP7Is2h4a9H_-1">
          <mxGeometry y="26" width="200" height="26" as="geometry" />
        </mxCell>
        <mxCell id="lLXHPsCMNP7Is2h4a9H_-3" value="" style="line;strokeWidth=1;fillColor=none;align=left;verticalAlign=middle;spacingTop=-1;spacingLeft=3;spacingRight=3;rotatable=0;labelPosition=right;points=[];portConstraint=eastwest;strokeColor=inherit;" vertex="1" parent="lLXHPsCMNP7Is2h4a9H_-1">
          <mxGeometry y="52" width="200" height="8" as="geometry" />
        </mxCell>
        <mxCell id="lLXHPsCMNP7Is2h4a9H_-4" value="+ addMatch(Match): void&lt;div&gt;+ searchMatch(string): List&amp;lt;Match&amp;gt;&lt;/div&gt;" style="text;strokeColor=none;fillColor=none;align=left;verticalAlign=top;spacingLeft=4;spacingRight=4;overflow=hidden;rotatable=0;points=[[0,0.5],[1,0.5]];portConstraint=eastwest;whiteSpace=wrap;html=1;" vertex="1" parent="lLXHPsCMNP7Is2h4a9H_-1">
          <mxGeometry y="60" width="200" height="40" as="geometry" />
        </mxCell>
        <mxCell id="lLXHPsCMNP7Is2h4a9H_-5" value="&amp;lt;Interface&amp;gt;&lt;div&gt;Search&lt;/div&gt;" style="swimlane;fontStyle=1;align=center;verticalAlign=top;childLayout=stackLayout;horizontal=1;startSize=40;horizontalStack=0;resizeParent=1;resizeParentMax=0;resizeLast=0;collapsible=1;marginBottom=0;whiteSpace=wrap;html=1;" vertex="1" parent="1">
          <mxGeometry x="926" y="1550" width="210" height="74" as="geometry" />
        </mxCell>
        <mxCell id="lLXHPsCMNP7Is2h4a9H_-7" value="" style="line;strokeWidth=1;fillColor=none;align=left;verticalAlign=middle;spacingTop=-1;spacingLeft=3;spacingRight=3;rotatable=0;labelPosition=right;points=[];portConstraint=eastwest;strokeColor=inherit;" vertex="1" parent="lLXHPsCMNP7Is2h4a9H_-5">
          <mxGeometry y="40" width="210" height="8" as="geometry" />
        </mxCell>
        <mxCell id="lLXHPsCMNP7Is2h4a9H_-8" value="+ searchMatch(string): List&amp;lt;Match&amp;gt;" style="text;strokeColor=none;fillColor=none;align=left;verticalAlign=top;spacingLeft=4;spacingRight=4;overflow=hidden;rotatable=0;points=[[0,0.5],[1,0.5]];portConstraint=eastwest;whiteSpace=wrap;html=1;" vertex="1" parent="lLXHPsCMNP7Is2h4a9H_-5">
          <mxGeometry y="48" width="210" height="26" as="geometry" />
        </mxCell>
        <mxCell id="lLXHPsCMNP7Is2h4a9H_-12" style="edgeStyle=orthogonalEdgeStyle;rounded=0;orthogonalLoop=1;jettySize=auto;html=1;exitX=1;exitY=0.5;exitDx=0;exitDy=0;entryX=0;entryY=0.5;entryDx=0;entryDy=0;jumpStyle=arc;endArrow=diamondThin;endFill=0;endSize=12;" edge="1" parent="1" source="wuQlVSBRoirgcwjtB85D-74" target="lLXHPsCMNP7Is2h4a9H_-2">
          <mxGeometry relative="1" as="geometry" />
        </mxCell>
      </root>
    </mxGraphModel>
  </diagram>
</mxfile>
